<svg xmlns="http://www.w3.org/2000/svg" xmlns:xlink="http://www.w3.org/1999/xlink" width="1366" zoomAndPan="magnify" viewBox="0 0 1024.5 576" height="768" preserveAspectRatio="xMidYMid meet" version="1.0"><defs><g/><clipPath id="1a2a2b74d5"><path d="M 213.402344 189 L 810.863281 189 L 810.863281 342 L 213.402344 342 Z M 213.402344 189 " clip-rule="nonzero"/></clipPath></defs><path fill="#737373" d="M 298.886719 249.324219 C 298.707031 253.488281 298.585938 257.679688 298.648438 261.871094 C 297.75 263.578125 296.910156 265.316406 296.160156 267.050781 C 296.820312 261.0625 297.75 255.132812 298.886719 249.324219 Z M 384.441406 118.042969 C 380.636719 122.292969 377.195312 127.027344 374.050781 132.175781 C 366.894531 135.769531 360.304688 139.664062 354.316406 143.855469 C 363.507812 134.363281 373.601562 125.679688 384.441406 118.042969 Z M 658.234375 143.824219 C 652.246094 139.632812 645.628906 135.710938 638.46875 132.148438 C 635.324219 126.9375 631.824219 122.175781 627.988281 117.890625 C 637.8125 124.808594 647.125 132.597656 655.777344 141.25 C 656.617188 142.058594 657.425781 142.957031 658.234375 143.824219 Z M 713.902344 261.839844 C 713.992188 257.589844 713.875 253.398438 713.664062 249.203125 C 714.800781 255.015625 715.671875 260.851562 716.328125 266.78125 C 715.609375 265.136719 714.800781 263.457031 713.902344 261.839844 Z M 713.066406 334.96875 C 712.617188 326.972656 710.371094 319.1875 706.417969 311.609375 C 710.371094 297.6875 712.796875 283.523438 713.605469 269.359375 C 715.730469 274.449219 717.019531 279.628906 717.585938 284.871094 C 717.617188 286.816406 717.707031 288.792969 717.707031 290.769531 C 717.707031 305.800781 716.121094 320.59375 713.066406 334.96875 Z M 651.019531 444.808594 C 651.527344 444.0625 651.976562 443.28125 652.425781 442.503906 C 654.101562 441.246094 655.71875 439.929688 657.367188 438.609375 C 656.828125 439.148438 656.316406 439.75 655.777344 440.289062 C 654.222656 441.84375 652.605469 443.3125 651.019531 444.808594 Z M 355.0625 438.492188 C 356.710938 439.839844 358.359375 441.1875 360.035156 442.445312 C 360.484375 443.222656 360.964844 444 361.472656 444.78125 C 359.886719 443.28125 358.296875 441.816406 356.742188 440.289062 C 356.171875 439.6875 355.632812 439.089844 355.0625 438.492188 Z M 319.878906 240.9375 C 320.058594 254.714844 321.792969 268.847656 325.207031 283.28125 C 325.476562 284.359375 325.746094 285.4375 326.015625 286.515625 C 324.101562 288.195312 322.273438 289.902344 320.535156 291.636719 C 315.265625 296.90625 310.925781 302.359375 307.570312 307.898438 C 303.765625 293.671875 301.613281 279.238281 301.132812 264.777344 C 305.414062 256.390625 311.734375 248.394531 319.878906 240.9375 Z M 308.199219 216.742188 C 312.300781 208.835938 318.261719 201.351562 325.835938 194.402344 C 322.035156 207.820312 320.027344 221.863281 319.847656 236.328125 C 317.78125 238.125 315.804688 239.949219 313.949219 241.777344 C 308.738281 247.019531 304.457031 252.347656 301.011719 257.828125 C 301.042969 249.5625 301.640625 241.328125 302.777344 233.152344 C 304.367188 227.582031 306.191406 222.101562 308.199219 216.742188 Z M 340.449219 159.726562 C 339.011719 162.210938 337.636719 164.757812 336.347656 167.332031 C 334.730469 168.742188 333.175781 170.117188 331.707031 171.585938 C 334.492188 167.511719 337.394531 163.53125 340.449219 159.726562 Z M 366.144531 147.839844 C 356.652344 152.660156 348.207031 157.929688 340.929688 163.589844 C 343.234375 159.367188 345.78125 155.234375 348.507812 151.191406 C 355.273438 145.652344 363.121094 140.53125 371.835938 135.949219 C 369.769531 139.722656 367.851562 143.675781 366.144531 147.839844 Z M 411.453125 120.136719 C 409.65625 123.882812 408.039062 127.894531 406.601562 132.117188 C 400.550781 133.882812 394.683594 135.828125 388.992188 137.925781 C 382.046875 140.53125 375.546875 143.285156 369.4375 146.25 C 371.324219 141.910156 373.421875 137.804688 375.726562 133.945312 C 386.476562 128.613281 398.484375 123.972656 411.453125 120.136719 Z M 395.011719 111.003906 C 398.097656 109.089844 401.210938 107.261719 404.386719 105.523438 C 411.480469 102.261719 419.179688 99.355469 427.324219 96.871094 C 421.695312 102.621094 416.871094 109.417969 412.828125 117.292969 C 400.3125 120.917969 388.605469 125.257812 378.03125 130.230469 C 382.914062 122.804688 388.605469 116.367188 395.011719 111.003906 Z M 431.007812 93.335938 C 430.46875 93.457031 429.929688 93.605469 429.390625 93.785156 C 430.046875 93.515625 430.707031 93.277344 431.367188 93.039062 C 431.246094 93.128906 431.125 93.21875 431.007812 93.335938 Z M 467.210938 85.910156 C 456.371094 87.316406 445.917969 89.355469 436.007812 91.960938 C 436.066406 91.75 436.097656 91.511719 436.066406 91.300781 C 447.027344 87.4375 458.378906 84.441406 470.085938 82.4375 C 469.066406 83.484375 468.109375 84.652344 467.210938 85.910156 Z M 576.542969 91.898438 C 566.628906 89.292969 556.179688 87.257812 545.308594 85.851562 C 544.441406 84.621094 543.511719 83.484375 542.523438 82.4375 C 554.113281 84.441406 565.492188 87.347656 576.511719 91.210938 C 576.453125 91.449219 576.453125 91.660156 576.542969 91.898438 Z M 581.425781 93.21875 C 581.335938 93.128906 581.214844 93.039062 581.09375 92.917969 C 581.753906 93.1875 582.441406 93.425781 583.101562 93.695312 C 582.5625 93.546875 581.992188 93.367188 581.425781 93.21875 Z M 643.113281 146.191406 C 637.003906 143.257812 630.503906 140.472656 623.585938 137.894531 C 617.867188 135.800781 612 133.855469 605.980469 132.085938 C 604.542969 127.863281 602.894531 123.882812 601.097656 120.078125 C 614.066406 123.941406 626.074219 128.554688 636.792969 133.914062 C 639.128906 137.777344 641.226562 141.878906 643.113281 146.191406 Z M 663.984375 151.101562 C 666.738281 155.144531 669.285156 159.277344 671.589844 163.5 C 664.3125 157.871094 655.898438 152.597656 646.40625 147.808594 C 644.699219 143.644531 642.78125 139.664062 640.6875 135.890625 C 649.402344 140.5 657.214844 145.5625 663.984375 151.101562 Z M 676.140625 167.242188 C 674.855469 164.609375 673.445312 162.03125 671.980469 159.457031 C 675.125 163.441406 678.148438 167.484375 680.992188 171.613281 C 679.4375 170.148438 677.820312 168.652344 676.140625 167.242188 Z M 698.660156 241.777344 C 696.773438 239.921875 694.796875 238.125 692.730469 236.296875 C 692.523438 221.683594 690.484375 207.519531 686.625 193.984375 C 694.199219 200.992188 700.160156 208.539062 704.320312 216.535156 C 706.386719 222.042969 708.214844 227.644531 709.800781 233.332031 C 710.9375 241.449219 711.507812 249.59375 711.539062 257.796875 C 708.125 252.320312 703.84375 246.988281 698.660156 241.777344 Z M 691.355469 291.636719 C 689.796875 290.050781 688.121094 288.523438 686.414062 287.027344 C 686.742188 285.769531 687.074219 284.511719 687.34375 283.28125 C 690.785156 268.847656 692.523438 254.714844 692.671875 240.96875 C 693.871094 242.046875 695.039062 243.15625 696.144531 244.292969 C 702.765625 250.882812 707.855469 257.738281 711.449219 264.746094 C 710.96875 279.449219 708.722656 294.183594 704.769531 308.675781 C 701.355469 302.835938 696.863281 297.148438 691.355469 291.636719 Z M 696.054688 334.011719 C 692.820312 328.558594 688.597656 323.289062 683.480469 318.140625 C 681.742188 316.433594 679.945312 314.785156 678.058594 313.109375 C 681.054688 305.292969 683.660156 297.445312 685.785156 289.570312 C 687.101562 290.800781 688.417969 292.027344 689.707031 293.285156 C 695.726562 299.304688 700.457031 305.53125 703.902344 311.878906 C 701.746094 319.335938 699.109375 326.734375 696.054688 334.011719 Z M 710.640625 342.214844 C 708.632812 347.605469 706.445312 352.757812 704.082031 357.726562 C 703.394531 350.511719 701.207031 343.445312 697.492188 336.554688 C 700.578125 329.429688 703.242188 322.242188 705.457031 314.933594 C 709.023438 322.453125 710.820312 330.175781 710.820312 338.054688 C 710.820312 339.429688 710.757812 340.839844 710.640625 342.214844 Z M 704.292969 362.609375 C 705.367188 360.511719 706.386719 358.355469 707.40625 356.171875 C 706.386719 359.253906 705.339844 362.277344 704.203125 365.332031 C 704.261719 364.40625 704.292969 363.535156 704.292969 362.609375 Z M 612.179688 461.910156 C 613.617188 458.496094 614.363281 455.019531 614.484375 451.425781 C 628.230469 444.269531 642.511719 435.078125 656.078125 423.488281 C 655.6875 429.386719 653.832031 435.226562 650.660156 440.886719 C 638.738281 449.660156 625.5625 456.609375 612.179688 461.910156 Z M 591.664062 484.25 C 591.484375 484.308594 591.304688 484.398438 591.125 484.429688 C 594.210938 482.453125 597.054688 480.414062 599.601562 478.230469 C 603.941406 476.941406 608.253906 475.382812 612.449219 473.675781 C 605.710938 477.570312 598.792969 481.105469 591.664062 484.25 Z M 412.710938 478.140625 C 415.164062 480.296875 417.921875 482.332031 420.914062 484.25 C 420.855469 484.25 420.796875 484.21875 420.734375 484.1875 C 413.667969 481.074219 406.722656 477.539062 400.011719 473.617188 C 404.144531 475.324219 408.398438 476.851562 412.710938 478.140625 Z M 356.472656 423.488281 C 370.039062 435.046875 384.320312 444.242188 398.066406 451.398438 C 398.15625 454.960938 398.90625 458.464844 400.3125 461.878906 C 386.957031 456.546875 373.78125 449.632812 361.863281 440.855469 C 358.6875 435.195312 356.832031 429.359375 356.472656 423.488281 Z M 308.230469 362.519531 C 308.230469 363.445312 308.289062 364.34375 308.320312 365.304688 C 307.152344 362.1875 306.074219 359.074219 305.054688 355.929688 C 306.074219 358.175781 307.121094 360.394531 308.230469 362.519531 Z M 334.492188 313.078125 C 332.605469 314.753906 330.777344 316.402344 329.070312 318.140625 C 323.921875 323.261719 319.757812 328.558594 316.523438 333.949219 C 313.351562 326.433594 310.65625 318.796875 308.4375 311.070312 C 312.78125 303.316406 318.949219 295.949219 326.675781 289.0625 C 328.800781 297.085938 331.4375 305.113281 334.492188 313.078125 Z M 360.003906 267.023438 C 361.683594 275.4375 363.71875 283.910156 366.113281 292.355469 C 354.824219 298.015625 344.824219 304.425781 336.410156 311.460938 C 333.355469 303.4375 330.75 295.378906 328.652344 287.355469 C 337.367188 279.898438 347.90625 273.101562 360.003906 267.023438 Z M 358.746094 172.0625 C 356.292969 183.382812 354.824219 195.601562 354.554688 208.6875 C 354.496094 210.335938 354.527344 211.980469 354.527344 213.628906 C 342.277344 219.738281 331.40625 226.65625 322.273438 234.261719 C 322.664062 219.410156 324.96875 205.0625 329.222656 191.378906 C 337.515625 184.34375 347.457031 177.875 358.746094 172.0625 Z M 359.4375 168.890625 C 348.445312 174.460938 338.742188 180.597656 330.539062 187.1875 C 332.726562 180.867188 335.300781 174.699219 338.292969 168.679688 C 345.839844 162.210938 354.824219 156.28125 364.976562 150.953125 C 362.820312 156.613281 360.933594 162.601562 359.4375 168.890625 Z M 401.242188 152.660156 C 392.644531 155.175781 384.382812 158.019531 376.59375 161.132812 C 371.59375 163.171875 366.804688 165.296875 362.222656 167.511719 C 363.839844 161.132812 365.785156 155.023438 368.089844 149.335938 C 379.351562 143.675781 392.015625 138.765625 405.703125 134.691406 C 403.9375 140.292969 402.410156 146.28125 401.242188 152.660156 Z M 453.796875 124.421875 C 452.867188 130.050781 452.089844 135.949219 451.519531 142.027344 C 434.839844 144.335938 418.789062 147.628906 403.757812 151.910156 C 405.015625 145.472656 406.570312 139.484375 408.457031 133.882812 C 422.59375 129.8125 437.804688 126.636719 453.796875 124.421875 Z M 456.671875 110.527344 C 455.742188 114.179688 454.933594 118.011719 454.183594 122.054688 C 438.582031 124.179688 423.519531 127.265625 409.355469 131.277344 C 410.882812 127.027344 412.558594 123.011719 414.445312 119.238281 C 427.652344 115.496094 441.847656 112.5625 456.671875 110.527344 Z M 505.09375 104.867188 C 489.550781 104.894531 474.308594 105.882812 459.726562 107.742188 C 462.03125 99.804688 464.933594 93.128906 468.410156 88.125 C 480.296875 86.570312 492.574219 85.761719 505.09375 85.699219 Z M 552.855469 107.742188 C 538.242188 105.882812 523 104.894531 507.429688 104.867188 L 507.429688 85.699219 C 520.003906 85.730469 532.28125 86.539062 544.082031 88.035156 C 547.613281 93.066406 550.488281 99.746094 552.855469 107.742188 Z M 558.367188 122.023438 C 557.648438 118.011719 556.839844 114.148438 555.878906 110.496094 C 570.734375 112.53125 584.898438 115.46875 598.105469 119.210938 C 599.992188 122.984375 601.695312 127.027344 603.222656 131.277344 C 589.03125 127.234375 573.996094 124.152344 558.367188 122.023438 Z M 608.792969 151.820312 C 593.882812 147.597656 577.859375 144.273438 561.0625 141.96875 C 560.460938 135.890625 559.714844 130.019531 558.753906 124.421875 C 574.777344 126.605469 589.988281 129.8125 604.121094 133.855469 C 605.980469 139.453125 607.535156 145.414062 608.792969 151.820312 Z M 650.328125 167.363281 C 638.558594 161.671875 625.472656 156.703125 611.308594 152.570312 C 610.113281 146.191406 608.644531 140.261719 606.847656 134.660156 C 620.5625 138.765625 633.199219 143.644531 644.460938 149.277344 C 646.765625 154.964844 648.710938 161.015625 650.328125 167.363281 Z M 653.113281 168.710938 C 651.585938 162.453125 649.730469 156.523438 647.574219 150.921875 C 657.726562 156.222656 666.679688 162.152344 674.226562 168.621094 C 677.191406 174.550781 679.796875 180.6875 681.953125 186.945312 C 673.6875 180.328125 663.984375 174.191406 653.113281 168.710938 Z M 658.054688 213.597656 C 658.054688 211.980469 658.054688 210.335938 658.023438 208.6875 C 657.726562 195.453125 656.257812 183.054688 653.742188 171.613281 C 665.003906 177.394531 674.945312 183.894531 683.210938 190.960938 C 687.523438 204.792969 689.917969 219.257812 690.304688 234.230469 C 681.144531 226.65625 670.300781 219.738281 658.054688 213.597656 Z M 646.4375 292.355469 C 648.832031 284 650.839844 275.644531 652.484375 267.351562 C 664.613281 273.492188 675.125 280.347656 683.777344 287.835938 C 681.710938 295.710938 679.167969 303.644531 676.171875 311.492188 C 667.726562 304.425781 657.726562 298.046875 646.4375 292.355469 Z M 665.992188 334.730469 C 658.144531 328.171875 648.863281 322.210938 638.378906 316.941406 C 641.136719 309.546875 643.589844 302.117188 645.777344 294.632812 C 657.035156 300.320312 666.949219 306.730469 675.273438 313.796875 C 672.519531 320.835938 669.433594 327.8125 665.992188 334.730469 Z M 685.007812 356.441406 C 681.921875 351.167969 677.878906 346.019531 672.878906 340.988281 C 671.289062 339.402344 669.554688 337.84375 667.816406 336.316406 C 671.289062 329.429688 674.375 322.453125 677.160156 315.445312 C 678.746094 316.882812 680.335938 318.320312 681.800781 319.785156 C 687.28125 325.296875 691.625 330.925781 694.886719 336.734375 C 691.953125 343.382812 688.6875 349.972656 685.007812 356.441406 Z M 563.097656 467.71875 C 562.917969 465.953125 562.4375 464.183594 561.660156 462.449219 C 578.667969 455.890625 594.570312 447.894531 609.214844 438.550781 C 611.070312 442.265625 612.027344 446.097656 612.117188 450.019531 C 593.730469 459.453125 576.363281 465.144531 563.097656 467.71875 Z M 562.230469 474.695312 C 562.769531 473.226562 563.066406 471.671875 563.15625 470.113281 C 576.363281 467.539062 593.640625 461.96875 612.058594 452.65625 C 611.789062 456.1875 610.800781 459.691406 609.125 463.078125 C 592.984375 469.15625 576.753906 472.957031 562.230469 474.695312 Z M 550.308594 487.992188 C 552.375 486.703125 554.234375 485.296875 555.851562 483.828125 C 567.949219 484.636719 581.066406 483.171875 594 479.816406 C 590.46875 482.390625 586.453125 484.816406 582.113281 487.003906 C 572.109375 489.429688 564.054688 489.488281 550.308594 487.992188 Z M 477.8125 494.667969 C 486.285156 497.125 496.046875 498.53125 506.261719 498.53125 C 511.320312 498.53125 516.203125 498.203125 520.84375 497.605469 C 522.402344 499.132812 524.019531 500.390625 525.664062 501.316406 C 519.257812 501.886719 512.789062 502.214844 506.261719 502.214844 C 491.945312 502.214844 477.839844 500.777344 464.097656 498.023438 C 468.886719 497.605469 473.320312 496.496094 477.8125 494.667969 Z M 456.789062 483.828125 C 458.40625 485.296875 460.261719 486.703125 462.328125 487.992188 C 448.496094 489.488281 440.441406 489.429688 430.378906 486.972656 C 426.035156 484.789062 422.054688 482.390625 418.519531 479.785156 C 431.484375 483.171875 444.660156 484.636719 456.789062 483.828125 Z M 449.394531 470.113281 C 449.484375 471.640625 449.78125 473.199219 450.320312 474.695312 C 435.796875 472.929688 419.539062 469.15625 403.398438 463.046875 C 401.71875 459.664062 400.730469 456.1875 400.492188 452.65625 C 418.878906 461.9375 436.15625 467.539062 449.394531 470.113281 Z M 403.308594 438.492188 C 417.980469 447.894531 433.882812 455.890625 450.890625 462.417969 C 450.082031 464.15625 449.601562 465.921875 449.421875 467.71875 C 436.15625 465.113281 418.820312 459.421875 400.402344 449.988281 C 400.492188 446.039062 401.511719 442.203125 403.308594 438.492188 Z M 326.226562 358.777344 C 322.78125 365.242188 320.777344 371.890625 320.238281 378.71875 C 316.792969 373.390625 313.558594 367.878906 310.59375 362.011719 C 310.683594 354.222656 312.632812 346.648438 316.253906 339.371094 C 319.21875 345.957031 322.542969 352.425781 326.226562 358.777344 Z M 344.761719 336.285156 C 342.964844 337.84375 341.257812 339.402344 339.640625 340.988281 C 334.671875 345.988281 330.628906 351.140625 327.542969 356.410156 C 323.890625 349.941406 320.597656 343.382812 317.691406 336.734375 C 321.882812 329.21875 327.875 322.09375 335.390625 315.445312 C 338.175781 322.421875 341.289062 329.398438 344.761719 336.285156 Z M 374.199219 316.910156 C 363.6875 322.183594 354.40625 328.140625 346.558594 334.699219 C 343.117188 327.8125 340.03125 320.804688 337.277344 313.796875 C 345.511719 306.851562 355.453125 300.441406 366.804688 294.722656 C 368.988281 302.148438 371.445312 309.574219 374.199219 316.910156 Z M 407.558594 279 C 409.175781 286.578125 411.003906 294.242188 413.039062 301.9375 C 399.683594 305.800781 387.375 310.472656 376.296875 315.863281 C 373.570312 308.496094 371.117188 301.101562 368.929688 293.671875 C 380.488281 288.042969 393.484375 283.101562 407.558594 279 Z M 402.289062 250.671875 C 403.605469 259.175781 405.164062 267.832031 407.019531 276.605469 C 392.976562 280.675781 379.949219 285.589844 368.269531 291.308594 C 365.875 282.832031 363.839844 274.359375 362.160156 265.945312 C 374.199219 260.074219 387.675781 254.925781 402.289062 250.671875 Z M 397.765625 200.691406 C 398.066406 215.664062 399.472656 231.625 401.929688 248.246094 C 387.347656 252.46875 373.839844 257.558594 361.683594 263.488281 C 358.628906 247.4375 357.011719 231.625 356.832031 216.445312 C 369.078125 210.394531 382.824219 205.125 397.765625 200.691406 Z M 398.574219 172.394531 C 397.886719 180.210938 397.617188 188.445312 397.675781 196.980469 C 382.945312 201.292969 369.230469 206.5 356.859375 212.460938 C 356.859375 211.234375 356.859375 209.976562 356.890625 208.746094 C 357.191406 195.121094 358.746094 182.367188 361.441406 170.6875 C 373.269531 164.847656 386.449219 159.695312 400.761719 155.382812 C 399.832031 160.804688 399.085938 166.433594 398.574219 172.394531 Z M 449.753906 186.078125 C 432.265625 188.445312 415.585938 191.886719 400.011719 196.289062 C 399.953125 188.175781 400.253906 180.238281 400.910156 172.574219 C 401.449219 166.316406 402.257812 160.324219 403.246094 154.695312 C 418.25 150.292969 434.390625 146.851562 451.28125 144.484375 C 450.113281 157.898438 449.664062 172.152344 449.753906 186.078125 Z M 505.09375 140.652344 L 505.09375 182.367188 C 486.765625 182.425781 468.859375 183.625 451.667969 185.839844 C 451.640625 170.984375 452.179688 156.941406 453.347656 144.183594 C 469.996094 141.96875 487.335938 140.742188 505.09375 140.652344 Z M 505.09375 120.917969 L 505.09375 138.316406 C 487.632812 138.375 470.324219 139.542969 453.585938 141.730469 C 454.214844 135.558594 454.992188 129.632812 455.980469 124.152344 C 471.703125 122.085938 488.171875 120.976562 505.09375 120.917969 Z M 505.09375 118.550781 C 488.441406 118.609375 472.152344 119.6875 456.402344 121.726562 C 457.179688 117.683594 458.046875 113.820312 459.007812 110.226562 C 473.828125 108.28125 489.28125 107.261719 505.09375 107.203125 Z M 507.429688 118.550781 L 507.429688 107.203125 C 523.269531 107.261719 538.722656 108.28125 553.542969 110.195312 C 554.53125 113.789062 555.371094 117.652344 556.148438 121.726562 C 540.398438 119.6875 524.078125 118.609375 507.429688 118.550781 Z M 507.429688 138.316406 L 507.429688 120.917969 C 524.378906 120.945312 540.847656 122.054688 556.597656 124.121094 C 557.558594 129.632812 558.335938 135.5 558.964844 141.667969 C 542.464844 139.511719 525.15625 138.375 507.429688 138.316406 Z M 560.882812 185.839844 C 543.722656 183.59375 525.785156 182.394531 507.429688 182.367188 L 507.429688 140.652344 C 525.277344 140.710938 542.613281 141.910156 559.203125 144.066406 C 560.402344 156.851562 560.941406 170.957031 560.882812 185.839844 Z M 611.667969 172.574219 C 612.328125 180.238281 612.597656 188.175781 612.539062 196.289062 C 596.996094 191.886719 580.316406 188.445312 562.828125 186.078125 C 562.886719 172.09375 562.46875 157.808594 561.269531 144.335938 C 578.21875 146.671875 594.300781 150.054688 609.242188 154.335938 C 610.292969 160.117188 611.101562 166.195312 611.667969 172.574219 Z M 614.875 196.980469 C 614.964844 188.445312 614.664062 180.210938 614.003906 172.394531 C 613.464844 166.34375 612.71875 160.59375 611.757812 155.054688 C 626.074219 159.308594 639.25 164.398438 651.046875 170.238281 C 653.773438 182.066406 655.359375 194.941406 655.6875 208.746094 C 655.71875 209.976562 655.6875 211.234375 655.71875 212.460938 C 643.351562 206.472656 629.636719 201.292969 614.875 196.980469 Z M 610.589844 248.457031 C 613.105469 231.714844 614.515625 215.664062 614.8125 200.574219 C 629.667969 204.972656 643.410156 210.273438 655.71875 216.382812 C 655.570312 231.65625 653.890625 247.617188 650.839844 263.789062 C 638.710938 257.828125 625.175781 252.707031 610.589844 248.457031 Z M 605.53125 276.632812 C 607.386719 267.921875 608.914062 259.355469 610.230469 250.941406 C 612 251.449219 613.796875 251.929688 615.5625 252.46875 C 628.199219 256.453125 639.816406 261.0625 650.328125 266.242188 C 648.683594 274.566406 646.675781 282.953125 644.308594 291.308594 C 632.601562 285.617188 619.605469 280.675781 605.53125 276.632812 Z M 599.542969 301.9375 C 601.578125 294.210938 603.402344 286.515625 605.019531 278.910156 C 619.066406 282.953125 632.03125 287.894531 643.652344 293.582031 C 641.464844 301.039062 639.007812 308.496094 636.285156 315.894531 C 625.203125 310.503906 612.867188 305.800781 599.542969 301.9375 Z M 628.320312 335.539062 C 623.585938 346.199219 618.375 356.5 612.6875 366.410156 C 603.703125 362.011719 593.703125 358.207031 582.890625 355.0625 C 586.09375 346.40625 589.148438 337.484375 591.996094 328.378906 C 594.511719 320.265625 596.847656 312.210938 598.972656 304.246094 C 612.207031 308.046875 624.457031 312.6875 635.476562 318.078125 C 633.230469 323.949219 630.894531 329.789062 628.320312 335.539062 Z M 636.582031 381.5625 C 630.355469 376.382812 623.019531 371.652344 614.785156 367.460938 C 620.472656 357.519531 625.714844 347.1875 630.476562 336.496094 C 633.019531 330.746094 635.386719 324.96875 637.570312 319.128906 C 647.964844 324.398438 657.15625 330.328125 664.882812 336.855469 C 657.066406 352.21875 647.574219 367.21875 636.582031 381.5625 Z M 642.421875 386.863281 C 641.136719 385.578125 639.757812 384.320312 638.351562 383.089844 C 649.339844 368.777344 658.863281 353.804688 666.710938 338.441406 C 668.265625 339.851562 669.792969 341.226562 671.199219 342.664062 C 676.441406 347.90625 680.574219 353.265625 683.628906 358.777344 C 682.820312 360.183594 682.011719 361.589844 681.171875 362.96875 C 672.9375 376.292969 663.355469 388.660156 652.605469 399.980469 C 650.03125 395.460938 646.644531 391.117188 642.421875 386.863281 Z M 603.015625 426.152344 C 602.207031 425.375 601.335938 424.597656 600.46875 423.847656 C 613.316406 412.4375 625.472656 399.53125 636.464844 385.578125 C 636.613281 385.367188 636.761719 385.128906 636.914062 384.949219 C 638.261719 386.117188 639.546875 387.3125 640.746094 388.511719 C 645.027344 392.792969 648.382812 397.226562 650.898438 401.746094 C 638.769531 414.234375 625.085938 425.40625 610.082031 435.167969 C 608.285156 432.082031 605.917969 429.089844 603.015625 426.152344 Z M 556.929688 455.769531 C 556.75 455.589844 556.597656 455.46875 556.417969 455.320312 C 570.824219 447.445312 585.105469 437.261719 598.703125 425.40625 C 599.632812 426.183594 600.527344 426.992188 601.367188 427.832031 C 604.152344 430.644531 606.398438 433.519531 608.136719 436.453125 C 593.460938 445.828125 577.5625 453.824219 560.550781 460.351562 C 559.59375 458.765625 558.394531 457.238281 556.929688 455.769531 Z M 413.789062 425.34375 C 427.414062 437.234375 441.726562 447.414062 456.132812 455.289062 C 455.953125 455.46875 455.773438 455.589844 455.621094 455.769531 C 454.15625 457.238281 452.957031 458.765625 451.96875 460.351562 C 434.960938 453.824219 419.089844 445.796875 404.414062 436.453125 C 406.691406 432.53125 409.863281 428.820312 413.789062 425.34375 Z M 375.605469 384.917969 C 375.785156 385.128906 375.9375 385.367188 376.117188 385.578125 C 387.078125 399.53125 399.234375 412.4375 412.082031 423.816406 C 411.210938 424.597656 410.34375 425.375 409.503906 426.152344 C 406.601562 429.058594 404.234375 432.082031 402.4375 435.167969 C 387.464844 425.40625 373.78125 414.207031 361.652344 401.746094 C 364.917969 395.820312 369.648438 390.160156 375.605469 384.917969 Z M 374.199219 383.0625 C 372.792969 384.289062 371.414062 385.578125 370.128906 386.863281 C 365.875 391.085938 362.519531 395.460938 359.945312 399.921875 C 349.164062 388.632812 339.613281 376.292969 331.40625 362.96875 C 330.539062 361.589844 329.761719 360.183594 328.921875 358.777344 C 332.90625 351.589844 338.625 344.789062 345.839844 338.441406 C 353.71875 353.773438 363.210938 368.746094 374.199219 383.0625 Z M 382.105469 336.496094 C 386.835938 347.15625 392.078125 357.488281 397.765625 367.429688 C 389.53125 371.652344 382.195312 376.382812 375.996094 381.535156 C 365.007812 367.21875 355.484375 352.21875 347.667969 336.855469 C 355.332031 330.417969 364.527344 324.488281 375.007812 319.21875 C 377.222656 325.027344 379.589844 330.777344 382.105469 336.496094 Z M 420.585938 328.378906 C 423.429688 337.484375 426.484375 346.40625 429.660156 355.0625 C 418.847656 358.175781 408.847656 362.011719 399.863281 366.410156 C 394.203125 356.5 388.964844 346.199219 384.230469 335.539062 C 381.6875 329.816406 379.351562 324.007812 377.132812 318.140625 C 388.066406 312.839844 400.3125 308.167969 413.636719 304.335938 C 415.765625 312.269531 418.039062 320.324219 420.585938 328.378906 Z M 457.6875 295.140625 C 460.054688 313.257812 462.808594 330.925781 465.863281 347.484375 C 454.035156 349.101562 442.746094 351.410156 432.175781 354.34375 C 426.214844 338.292969 420.734375 321.195312 416.0625 303.644531 C 429.03125 299.992188 442.984375 297.148438 457.6875 295.140625 Z M 454.632812 269.207031 C 455.441406 277.082031 456.371094 284.988281 457.359375 292.773438 C 442.65625 294.75 428.582031 297.597656 415.433594 301.28125 C 413.429688 293.703125 411.601562 286.039062 409.953125 278.339844 C 423.851562 274.449219 438.851562 271.335938 454.632812 269.207031 Z M 452 240.28125 C 452.417969 245.761719 452.835938 250.792969 453.257812 255.222656 C 453.585938 259.085938 453.976562 262.980469 454.394531 266.84375 C 438.582031 268.9375 423.492188 272.023438 409.414062 275.945312 C 407.589844 267.292969 405.972656 258.636719 404.65625 249.984375 C 419.386719 245.820312 435.289062 242.554688 452 240.28125 Z M 451.847656 237.945312 C 435.140625 240.160156 419.179688 243.394531 404.296875 247.585938 C 401.839844 231.417969 400.34375 215.394531 400.074219 200.003906 C 415.496094 195.570312 432.175781 192.066406 449.78125 189.671875 C 449.933594 207.070312 450.832031 223.898438 451.847656 237.945312 Z M 505.09375 234.382812 C 487.484375 234.410156 470.265625 235.550781 453.734375 237.675781 C 452.539062 221.117188 451.820312 204.855469 451.699219 189.402344 C 468.738281 187.125 486.644531 185.960938 505.09375 185.898438 Z M 558.816406 237.765625 C 542.316406 235.609375 525.066406 234.441406 507.429688 234.382812 L 507.429688 185.898438 C 525.785156 185.929688 543.722656 187.125 560.882812 189.371094 C 560.761719 204.855469 560.042969 221.144531 558.816406 237.765625 Z M 560.730469 238.003906 C 561.75 223.929688 562.617188 207.101562 562.796875 189.613281 C 580.285156 191.976562 596.964844 195.453125 612.507812 199.914062 C 612.207031 215.367188 610.710938 231.507812 608.253906 247.765625 C 593.402344 243.542969 577.441406 240.25 560.730469 238.003906 Z M 558.1875 266.84375 C 558.574219 262.980469 558.964844 259.085938 559.324219 255.222656 C 559.714844 250.820312 560.132812 245.851562 560.550781 240.398438 C 577.050781 242.644531 592.953125 245.96875 607.894531 250.253906 C 606.546875 258.816406 604.960938 267.382812 603.132812 275.945312 C 589.058594 272.023438 573.96875 268.9375 558.1875 266.84375 Z M 555.191406 292.773438 C 556.179688 284.960938 557.109375 277.082031 557.945312 269.148438 C 573.636719 271.273438 588.671875 274.300781 602.65625 278.222656 C 600.976562 285.976562 599.152344 293.671875 597.144531 301.28125 C 583.96875 297.597656 569.925781 294.75 555.191406 292.773438 Z M 546.6875 347.484375 C 549.742188 330.894531 552.527344 313.226562 554.890625 295.109375 C 569.503906 297.085938 583.488281 299.902344 596.546875 303.554688 C 591.84375 321.132812 586.335938 338.292969 580.40625 354.375 C 569.835938 351.410156 558.515625 349.101562 546.6875 347.484375 Z M 559.324219 403.15625 C 551.867188 401.089844 543.902344 399.410156 535.578125 398.242188 C 539.351562 383.988281 542.972656 367.550781 546.296875 349.792969 C 557.976562 351.378906 569.144531 353.65625 579.597656 356.558594 C 573.21875 373.628906 566.300781 389.410156 559.324219 403.15625 Z M 581.574219 411.511719 C 575.554688 408.574219 568.9375 406.03125 561.78125 403.875 C 568.847656 389.980469 575.734375 374.199219 582.082031 357.25 C 592.773438 360.332031 602.683594 364.105469 611.550781 368.449219 C 602.625 383.839844 592.5625 398.242188 581.574219 411.511719 Z M 583.699219 412.589844 C 594.660156 399.320312 604.722656 384.886719 613.644531 369.496094 C 621.789062 373.628906 629.007812 378.332031 635.144531 383.421875 C 634.96875 383.660156 634.789062 383.871094 634.609375 384.109375 C 623.648438 398.0625 611.488281 410.941406 598.703125 422.289062 C 594.390625 418.726562 589.359375 415.460938 583.699219 412.589844 Z M 560.703125 406 C 567.679688 408.066406 574.175781 410.492188 580.015625 413.308594 C 569.324219 426.003906 557.738281 437.621094 545.398438 447.894531 C 542.585938 446.546875 539.5 445.320312 536.207031 444.300781 C 544.203125 434.898438 552.554688 421.722656 560.703125 406 Z M 534.976562 400.550781 C 543.125 401.65625 550.9375 403.273438 558.246094 405.3125 C 549.949219 421.390625 541.566406 434.539062 533.75 443.582031 C 529.648438 442.445312 525.277344 441.546875 520.722656 440.945312 C 525.425781 431.875 530.277344 417.886719 534.976562 400.550781 Z M 507.429688 398.632812 C 516.140625 398.664062 524.648438 399.230469 532.820312 400.25 C 528.0625 417.617188 523.089844 431.605469 518.207031 440.648438 C 514.734375 440.257812 511.113281 440.046875 507.429688 440.019531 Z M 494.34375 440.648438 C 489.460938 431.605469 484.488281 417.617188 479.757812 400.25 C 487.84375 399.203125 496.347656 398.664062 505.09375 398.601562 L 505.09375 440.019531 C 501.4375 440.046875 497.816406 440.257812 494.34375 440.648438 Z M 478.828125 443.582031 C 471.015625 434.539062 462.628906 421.390625 454.335938 405.3125 C 461.609375 403.304688 469.398438 401.6875 477.601562 400.550781 C 482.273438 417.917969 487.125 431.875 491.855469 440.945312 C 487.273438 441.515625 482.902344 442.414062 478.828125 443.582031 Z M 467.179688 447.894531 C 454.84375 437.621094 443.253906 426.003906 432.535156 413.335938 C 438.402344 410.550781 444.871094 408.097656 451.878906 406 C 460.023438 421.722656 468.378906 434.898438 476.34375 444.269531 C 473.050781 445.320312 469.964844 446.515625 467.179688 447.894531 Z M 428.851562 412.558594 C 423.222656 415.460938 418.160156 418.726562 413.847656 422.261719 C 401.0625 410.910156 388.902344 398.0625 377.972656 384.109375 C 377.761719 383.871094 377.582031 383.628906 377.402344 383.390625 C 383.484375 378.359375 390.730469 373.71875 398.933594 369.554688 C 407.859375 384.917969 417.890625 399.320312 428.851562 412.558594 Z M 450.769531 403.875 C 443.644531 406 436.996094 408.546875 431.007812 411.480469 C 420.015625 398.242188 409.984375 383.871094 401.0625 368.507812 C 409.863281 364.195312 419.777344 360.453125 430.496094 357.339844 C 436.847656 374.226562 443.734375 390.007812 450.769531 403.875 Z M 476.972656 398.242188 C 468.648438 399.410156 460.710938 401.089844 453.257812 403.15625 C 446.277344 389.410156 439.390625 373.628906 433.011719 356.589844 C 443.402344 353.714844 454.542969 351.4375 466.28125 349.820312 C 469.605469 367.550781 473.230469 383.988281 476.972656 398.242188 Z M 505.09375 347.15625 L 505.09375 396.269531 C 496.167969 396.328125 487.484375 396.925781 479.128906 397.972656 C 475.328125 383.71875 471.644531 367.28125 468.289062 349.550781 C 480.058594 348.023438 492.394531 347.214844 505.09375 347.15625 Z M 505.09375 291.90625 L 505.09375 344.820312 C 492.304688 344.851562 479.816406 345.6875 467.871094 347.214844 C 464.753906 330.625 461.96875 312.929688 459.605469 294.871094 C 474.160156 292.984375 489.402344 291.96875 505.09375 291.90625 Z M 505.09375 265.765625 L 505.09375 289.570312 C 489.371094 289.601562 474.039062 290.621094 459.304688 292.503906 C 458.289062 284.71875 457.359375 276.84375 456.519531 268.910156 C 472.0625 266.933594 488.324219 265.824219 505.09375 265.765625 Z M 505.09375 263.429688 C 488.351562 263.457031 471.972656 264.535156 456.28125 266.574219 C 455.382812 257.707031 454.574219 248.816406 453.914062 240.039062 C 470.265625 237.914062 487.425781 236.777344 505.09375 236.71875 Z M 507.429688 263.429688 L 507.429688 236.746094 C 524.855469 236.808594 542.046875 238.003906 558.636719 240.160156 C 558.007812 248.90625 557.199219 257.738281 556.269531 266.574219 C 540.578125 264.535156 524.199219 263.457031 507.429688 263.429688 Z M 507.429688 289.570312 L 507.429688 265.765625 C 524.136719 265.824219 540.429688 266.871094 556.058594 268.878906 C 555.222656 276.8125 554.292969 284.71875 553.273438 292.535156 C 538.542969 290.621094 523.179688 289.601562 507.429688 289.570312 Z M 507.429688 344.820312 L 507.429688 291.90625 C 523.058594 291.9375 538.332031 292.953125 552.976562 294.839844 C 550.609375 312.929688 547.792969 330.625 544.710938 347.246094 C 532.730469 345.6875 520.214844 344.851562 507.429688 344.820312 Z M 507.429688 347.15625 C 520.09375 347.214844 532.433594 347.996094 544.292969 349.523438 C 540.9375 367.28125 537.253906 383.71875 533.421875 398.003906 C 525.066406 396.925781 516.351562 396.328125 507.429688 396.269531 Z M 457.957031 453.644531 C 443.582031 445.828125 429.210938 435.707031 415.585938 423.789062 C 419.777344 420.402344 424.746094 417.257812 430.378906 414.414062 C 441.070312 427.113281 452.628906 438.699219 464.90625 449.0625 C 462.328125 450.4375 459.992188 451.964844 457.957031 453.644531 Z M 547.644531 449.0625 C 559.953125 438.730469 571.511719 427.113281 582.171875 414.414062 C 587.742188 417.257812 592.683594 420.402344 596.90625 423.878906 C 583.28125 435.734375 568.964844 445.859375 554.59375 453.671875 C 552.554688 451.996094 550.25 450.46875 547.644531 449.0625 Z M 530.664062 500.777344 C 528.300781 500.238281 526.023438 499.011719 523.839844 497.15625 C 527.703125 496.527344 531.355469 495.6875 534.796875 494.699219 C 539.289062 496.496094 543.691406 497.605469 548.421875 498.023438 C 542.585938 499.191406 536.625 500.089844 530.664062 500.777344 Z M 554.414062 480.265625 C 545.488281 489.21875 526.5625 495 506.261719 495 C 485.957031 495 467.0625 489.21875 458.109375 480.265625 C 454.632812 476.792969 452.867188 473.078125 452.867188 469.273438 C 452.867188 455.050781 476.824219 443.492188 506.261719 443.492188 C 526.5625 443.492188 545.488281 449.300781 554.414062 458.253906 C 557.917969 461.730469 559.683594 465.441406 559.683594 469.273438 C 559.683594 473.078125 557.917969 476.792969 554.414062 480.265625 Z M 322.394531 382.101562 C 322.511719 374.917969 324.339844 367.9375 327.664062 361.203125 C 328.234375 362.21875 328.800781 363.207031 329.429688 364.226562 C 337.84375 377.882812 347.699219 390.546875 358.777344 402.136719 C 356.113281 407.40625 354.585938 412.828125 354.195312 418.367188 C 342.726562 408.097656 331.855469 396.089844 322.394531 382.101562 Z M 356.410156 420.34375 C 356.5625 414.683594 357.96875 409.203125 360.515625 403.933594 C 372.703125 416.332031 386.359375 427.5 401.332031 437.234375 C 399.445312 441.007812 398.394531 444.871094 398.125 448.824219 C 384.292969 441.515625 369.976562 432.144531 356.410156 420.34375 Z M 411.183594 473.558594 C 408.785156 471.191406 406.839844 468.734375 405.253906 466.25 C 421.214844 472.03125 437.207031 475.59375 451.460938 477.210938 C 452.269531 478.738281 453.285156 480.175781 454.542969 481.613281 C 441.609375 482.183594 427.53125 480.175781 413.90625 476.101562 C 412.980469 475.265625 412.019531 474.425781 411.183594 473.558594 Z M 445.621094 493.410156 C 443.34375 492.632812 441.097656 491.792969 438.941406 490.925781 C 446.457031 491.765625 454.214844 491.285156 465.832031 489.9375 C 468.410156 491.285156 471.195312 492.484375 474.21875 493.5 C 467.839844 495.65625 461.460938 496.316406 453.675781 495.597656 C 453.644531 495.597656 453.585938 495.597656 453.585938 495.597656 C 450.921875 494.9375 448.253906 494.191406 445.621094 493.410156 Z M 566.898438 493.410156 C 564.265625 494.191406 561.628906 494.910156 558.964844 495.597656 C 558.933594 495.597656 558.933594 495.597656 558.90625 495.597656 C 551.117188 496.316406 544.800781 495.65625 538.453125 493.53125 C 541.476562 492.484375 544.292969 491.285156 546.835938 489.96875 C 558.367188 491.285156 566.089844 491.765625 573.578125 490.925781 C 571.421875 491.792969 569.175781 492.632812 566.898438 493.410156 Z M 598.613281 476.101562 C 584.988281 480.175781 570.941406 482.183594 558.066406 481.613281 C 559.292969 480.175781 560.3125 478.738281 561.152344 477.210938 C 575.34375 475.59375 591.335938 472.058594 607.296875 466.28125 C 605.679688 468.734375 603.734375 471.191406 601.367188 473.558594 C 600.5 474.425781 599.542969 475.265625 598.613281 476.101562 Z M 614.394531 448.851562 C 614.15625 444.871094 613.078125 441.035156 611.191406 437.234375 C 626.191406 427.5 639.847656 416.359375 652.035156 403.933594 C 654.640625 409.265625 655.988281 414.773438 656.109375 420.375 C 642.542969 432.144531 628.230469 441.546875 614.394531 448.851562 Z M 658.355469 418.398438 C 657.964844 412.859375 656.4375 407.4375 653.742188 402.167969 C 664.882812 390.546875 674.734375 377.882812 683.148438 364.226562 C 683.75 363.207031 684.316406 362.21875 684.917969 361.203125 C 688.269531 368 690.035156 375.007812 690.125 382.164062 C 680.664062 396.117188 669.824219 408.125 658.355469 418.398438 Z M 692.3125 378.78125 C 691.742188 371.953125 689.738281 365.304688 686.355469 358.804688 C 690.007812 352.425781 693.359375 345.957031 696.296875 339.371094 C 699.980469 346.765625 701.867188 354.3125 701.957031 362.070312 C 698.960938 367.910156 695.726562 373.480469 692.3125 378.78125 Z M 684.4375 285.257812 C 675.574219 277.742188 664.972656 270.914062 653.023438 264.867188 C 656.109375 248.753906 657.816406 232.824219 658.023438 217.523438 C 670.453125 223.839844 681.324219 231.027344 690.367188 238.902344 C 690.367188 253.128906 688.628906 267.769531 685.066406 282.742188 C 684.886719 283.582031 684.648438 284.421875 684.4375 285.257812 Z M 580.285156 95.34375 C 586.664062 101.0625 592.085938 108.101562 596.605469 116.394531 C 583.609375 112.800781 569.714844 110.015625 555.222656 108.070312 C 553.09375 100.433594 550.429688 93.757812 547.136719 88.457031 C 558.726562 90.074219 569.835938 92.378906 580.285156 95.34375 Z M 432.175781 95.433594 C 442.625 92.46875 453.796875 90.132812 465.414062 88.484375 C 462.121094 93.785156 459.484375 100.464844 457.359375 108.070312 C 442.863281 110.046875 428.96875 112.832031 415.972656 116.394531 C 420.4375 108.191406 425.824219 101.152344 432.175781 95.433594 Z M 327.484375 282.742188 C 323.949219 267.769531 322.214844 253.097656 322.183594 238.875 C 331.136719 231.117188 342.007812 223.960938 354.527344 217.613281 C 354.765625 232.792969 356.441406 248.546875 359.496094 264.535156 C 347.519531 270.554688 336.917969 277.324219 328.023438 284.808594 C 327.84375 284.121094 327.664062 283.433594 327.484375 282.742188 Z M 301.074219 338.054688 C 301.074219 329.816406 303.078125 321.792969 306.882812 314.125 C 309.128906 321.671875 311.882812 329.160156 315.058594 336.527344 C 311.34375 343.382812 309.15625 350.449219 308.46875 357.636719 C 305.773438 352.007812 303.316406 346.136719 301.132812 340 C 301.101562 339.371094 301.074219 338.710938 301.074219 338.054688 Z M 312.152344 374.738281 C 311.523438 372.339844 311.105469 369.945312 310.863281 367.519531 C 313.738281 372.820312 316.792969 377.910156 320.027344 382.730469 C 320.027344 382.761719 320.027344 382.792969 320.027344 382.820312 C 320.027344 386.265625 320.417969 389.679688 321.164062 393.0625 C 317.84375 387.105469 314.847656 380.996094 312.152344 374.738281 Z M 336.289062 416.269531 C 336.140625 416.121094 335.988281 416 335.808594 415.941406 C 332.636719 411.628906 329.671875 407.199219 326.855469 402.675781 C 324.398438 397.316406 322.933594 391.835938 322.511719 386.296875 C 331.976562 399.769531 342.726562 411.390625 354.046875 421.332031 C 354.078125 426.8125 355.273438 432.234375 357.578125 437.503906 C 349.734375 431.273438 342.488281 424.238281 336.289062 416.269531 Z M 373.179688 455.082031 C 370.097656 452.144531 367.402344 449.121094 365.15625 446.007812 C 376.683594 453.824219 389.144531 460.082031 401.75 464.933594 C 403.488281 468.195312 405.824219 471.339844 408.785156 474.425781 C 399.144531 471.101562 389.890625 466.761719 381.535156 461.550781 C 378.722656 459.453125 375.9375 457.328125 373.179688 455.082031 Z M 639.367188 455.082031 C 636.554688 457.355469 633.679688 459.574219 630.773438 461.699219 C 622.449219 466.910156 613.195312 471.191406 603.613281 474.484375 C 606.546875 471.460938 608.914062 468.257812 610.710938 464.964844 C 623.316406 460.140625 635.773438 453.882812 647.304688 446.066406 C 645.089844 449.152344 642.421875 452.175781 639.367188 455.082031 Z M 676.710938 415.941406 C 676.5625 416 676.410156 416.121094 676.292969 416.269531 C 670.0625 424.265625 662.785156 431.304688 654.941406 437.5625 C 657.246094 432.261719 658.445312 426.84375 658.472656 421.363281 C 669.792969 411.421875 680.542969 399.800781 690.007812 386.386719 C 689.585938 391.925781 688.089844 397.375 685.664062 402.734375 C 682.851562 407.226562 679.886719 411.628906 676.710938 415.941406 Z M 691.355469 393.0625 C 692.101562 389.710938 692.492188 386.265625 692.492188 382.820312 C 695.726562 377.972656 698.78125 372.941406 701.65625 367.609375 C 701.417969 370.003906 700.996094 372.371094 700.398438 374.765625 C 697.671875 380.996094 694.679688 387.132812 691.355469 393.0625 Z M 699.320312 204.34375 C 695.398438 199.253906 690.664062 194.375 685.304688 189.703125 C 683.449219 183.921875 681.261719 178.234375 678.746094 172.691406 C 682.609375 176.40625 686.054688 180.238281 688.988281 184.253906 C 692.820312 190.75 696.234375 197.488281 699.320312 204.34375 Z M 634.519531 130.199219 C 623.917969 125.199219 612.238281 120.855469 599.722656 117.261719 C 595.648438 109.359375 590.796875 102.53125 585.136719 96.722656 C 593.460938 99.296875 601.335938 102.320312 608.644531 105.703125 C 611.488281 107.292969 614.304688 108.910156 617.089844 110.644531 C 623.675781 116.035156 629.515625 122.59375 634.519531 130.199219 Z M 538.273438 81.71875 C 539.621094 82.796875 540.878906 84.023438 542.105469 85.460938 C 530.875 84.113281 519.285156 83.394531 507.429688 83.335938 L 507.429688 79.351562 C 517.847656 79.382812 528.152344 80.191406 538.273438 81.71875 Z M 505.09375 79.324219 L 505.09375 83.335938 C 493.292969 83.394531 481.675781 84.144531 470.445312 85.492188 C 471.644531 84.054688 472.929688 82.796875 474.277344 81.71875 C 484.339844 80.191406 494.640625 79.382812 505.09375 79.324219 Z M 323.710938 184.132812 C 326.617188 180.210938 329.96875 176.40625 333.773438 172.78125 C 331.226562 178.382812 329.042969 184.132812 327.183594 190 C 321.734375 194.703125 317.035156 199.675781 313.109375 204.765625 C 316.285156 197.667969 319.816406 190.78125 323.710938 184.132812 Z M 294.875 286.757812 C 295.261719 280.855469 296.640625 275.078125 298.976562 269.449219 C 299.753906 283.3125 302.121094 297.148438 305.921875 310.773438 C 302.03125 317.929688 299.726562 325.296875 299.007812 332.871094 C 296.25 319.15625 294.8125 305.054688 294.8125 290.769531 C 294.8125 289.421875 294.84375 288.074219 294.875 286.757812 Z M 291.21875 290.261719 C 291.21875 290.410156 291.25 290.53125 291.308594 290.679688 C 291.308594 290.710938 291.28125 290.738281 291.28125 290.769531 C 291.28125 348.175781 313.648438 402.167969 354.257812 442.773438 C 394.863281 483.378906 448.824219 505.71875 506.261719 505.71875 C 624.726562 505.71875 721.121094 409.382812 721.242188 290.949219 C 721.332031 290.738281 721.390625 290.5 721.390625 290.261719 C 721.390625 288.375 721.269531 286.515625 721.089844 284.660156 C 719.5625 229.53125 697.433594 177.902344 658.265625 138.765625 C 617.65625 98.160156 563.695312 75.789062 506.261719 75.789062 C 448.855469 75.789062 394.863281 98.160156 354.257812 138.765625 C 314.847656 178.171875 292.6875 230.160156 291.429688 285.707031 C 291.28125 287.234375 291.21875 288.734375 291.21875 290.261719 " fill-opacity="1" fill-rule="nonzero"/><g clip-path="url(#1a2a2b74d5)"><path fill="#737373" d="M 733.847656 332.632812 C 730.582031 332.902344 728.488281 335.089844 729.144531 337.484375 C 729.804688 339.910156 732.980469 341.648438 736.242188 341.378906 C 759.0625 339.460938 777.386719 336.015625 789.996094 331.105469 C 803.382812 325.894531 810.71875 318.949219 810.71875 310.292969 C 810.71875 292.324219 776.460938 271.484375 721.121094 252.347656 C 667.699219 233.871094 594 216.382812 512.699219 204.316406 C 471.613281 198.238281 432.5625 194.105469 397.078125 191.828125 C 345.691406 188.535156 301.671875 189.191406 269.898438 193.503906 C 236.179688 198.085938 215.605469 207.101562 213.480469 220.335938 C 213.363281 221.117188 213.300781 221.894531 213.300781 222.640625 C 213.300781 230.097656 218.871094 237.886719 229.171875 245.761719 C 239.085938 253.277344 253.519531 261.03125 271.664062 268.699219 C 274.660156 269.957031 278.285156 269.328125 279.75 267.230469 C 281.21875 265.164062 279.992188 262.46875 276.996094 261.183594 C 259.957031 253.996094 246.511719 246.808594 237.558594 239.980469 C 229.652344 233.960938 225.371094 228.363281 225.371094 223.421875 C 225.371094 222.941406 225.429688 222.492188 225.488281 222.101562 C 226.988281 212.789062 244.324219 206.050781 273.042969 202.160156 C 303.707031 197.96875 346.648438 197.398438 397.078125 200.601562 C 432.175781 202.847656 470.804688 206.949219 511.320312 212.96875 C 591.636719 224.859375 664.285156 242.078125 716.777344 260.222656 C 767.328125 277.710938 798.621094 295.53125 798.621094 309.515625 C 798.621094 314.875 793.320312 319.488281 783.617188 323.261719 C 772.207031 327.691406 755.230469 330.835938 733.847656 332.632812 " fill-opacity="1" fill-rule="nonzero"/></g><path fill="#737373" d="M 728.246094 70.878906 L 728.546875 70.878906 C 730.582031 97.679688 751.964844 119.089844 778.765625 121.097656 L 778.765625 121.425781 C 751.964844 123.433594 730.582031 144.84375 728.546875 171.644531 L 728.246094 171.644531 C 726.210938 144.84375 704.832031 123.433594 678.027344 121.425781 L 678.027344 121.097656 C 704.832031 119.089844 726.210938 97.679688 728.246094 70.878906 " fill-opacity="1" fill-rule="evenodd"/><path fill="#737373" d="M 779.574219 163.351562 L 779.722656 163.351562 C 780.5625 174.757812 789.667969 183.863281 801.046875 184.703125 L 801.046875 184.851562 C 789.667969 185.691406 780.5625 194.792969 779.722656 206.171875 L 779.574219 206.171875 C 778.734375 194.792969 769.632812 185.691406 758.222656 184.851562 L 758.222656 184.703125 C 769.632812 183.863281 778.734375 174.757812 779.574219 163.351562 " fill-opacity="1" fill-rule="evenodd"/><path stroke-linecap="butt" transform="matrix(1.536979, -0.237293, 0.237293, 1.536979, 221.798081, 226.877347)" fill="none" stroke-linejoin="miter" d="M 2.802299 54.9999 L 34.774425 55.000437 C 41.377231 55.000693 46.189237 50.187872 46.188927 43.572271 L 46.189574 37.312629 C 46.189264 30.697028 41.376443 25.885022 34.776119 25.885149 L 19.601086 25.883019 C 18.807816 25.885081 18.193808 25.269275 18.194795 24.489183 C 18.195216 23.696297 18.808539 23.081906 19.601426 23.082326 L 44.795631 23.080986 C 45.57324 23.08159 46.189046 22.467582 46.190033 21.687491 L 46.19003 11.612941 C 46.187968 10.819671 45.573577 10.206347 44.793486 10.205361 L 12.82136 10.204824 C 6.218554 10.204568 1.393753 15.017955 1.394063 21.633556 L 1.393982 27.905993 C 1.393726 34.508799 6.219342 39.320239 12.822148 39.320495 L 27.994699 39.322242 C 28.775174 39.320746 29.389181 39.936552 29.388761 40.729439 C 29.39064 41.507431 28.774451 42.123921 27.994359 42.122935 L 2.802636 42.124658 C 2.009749 42.124237 1.393944 42.738245 1.392957 43.518337 L 1.393526 53.605682 C 1.395022 54.386156 2.009413 54.99948 2.802299 54.9999 Z M 2.802299 54.9999 " stroke="#bfbfbf" stroke-width="4.199933" stroke-opacity="1" stroke-miterlimit="4"/><path stroke-linecap="butt" transform="matrix(1.545586, -0.17256, 0.17256, 1.545586, 297.140263, 215.431223)" fill="none" stroke-linejoin="miter" d="M 12.822355 55.000472 L 26.369154 54.999046 C 32.9832 54.999497 37.796568 50.189006 37.794802 43.572185 L 37.795324 21.632247 C 37.796054 15.015704 32.985284 10.204833 26.368742 10.204103 L 12.821942 10.205528 C 6.220378 10.206471 1.39425 15.018064 1.393799 21.632111 L 1.393276 43.572049 C 1.395043 50.18887 6.218572 54.998639 12.822355 55.000472 Z M 19.602989 42.122413 C 18.809415 42.12227 18.193132 41.507554 18.194099 40.729236 L 18.194931 24.491052 C 18.195073 23.697478 18.809789 23.081195 19.600867 23.081059 C 20.381682 23.082305 20.995468 23.696741 20.995326 24.490316 L 20.99699 40.728779 C 20.996023 41.507097 20.381308 42.12338 19.602989 42.122413 Z M 19.602989 42.122413 " stroke="#bfbfbf" stroke-width="4.199933" stroke-opacity="1" stroke-miterlimit="4"/><path stroke-linecap="butt" transform="matrix(1.551471, -0.107481, 0.107481, 1.551471, 359.893862, 208.332145)" fill="none" stroke-linejoin="miter" d="M 2.857272 54.999702 L 16.800754 54.998841 C 17.578675 54.99986 18.1941 54.329966 18.195119 53.552045 L 18.193217 44.638999 C 18.19441 43.858572 18.808521 43.243977 19.60165 43.243532 L 42.606538 43.243495 C 43.386965 43.244687 44.001077 42.630092 44.000631 41.836963 L 44.002896 29.520178 C 44.001409 28.742083 43.331514 28.126659 42.553593 28.12564 L 19.6015 28.126817 C 18.808544 28.124757 18.193949 27.510645 18.194968 26.732724 C 18.194523 25.939595 18.808808 25.322494 19.601764 25.324555 L 44.850034 25.32383 C 45.627955 25.324849 46.244746 24.707922 46.243259 23.929828 L 46.243018 11.612869 C 46.242573 10.81974 45.627978 10.205628 44.850057 10.204609 L 2.803247 10.20479 C 2.010118 10.205236 1.393501 10.819657 1.393946 11.612786 L 1.395267 53.606801 C 1.394248 54.384722 2.076671 55.001015 2.857272 54.999702 Z M 2.857272 54.999702 " stroke="#bfbfbf" stroke-width="4.199933" stroke-opacity="1" stroke-miterlimit="4"/><path stroke-linecap="butt" transform="matrix(1.55456, -0.0442343, 0.0442343, 1.55456, 435.952322, 203.282964)" fill="none" stroke-linejoin="miter" d="M 11.303378 55.000892 L 25.24674 55.000627 C 26.040776 55.000606 26.655395 54.329596 26.654945 53.550625 L 26.654181 26.731822 C 26.656671 25.937858 27.324955 25.323656 28.103926 25.323206 L 33.709879 25.324417 C 34.48885 25.323967 35.101898 24.708193 35.103959 23.929294 L 35.102593 11.614175 C 35.103511 10.875447 34.48687 10.204581 33.707899 10.20503 L 2.802413 10.149816 C 2.008378 10.149837 1.39533 10.765611 1.395351 11.559646 L 1.395145 23.930001 C 1.393084 24.708901 2.008786 25.32446 2.802822 25.324439 L 8.393782 25.32271 C 9.185307 25.322617 9.856245 25.939748 9.856338 26.731272 L 9.85553 53.605312 C 9.855979 54.384283 10.524479 54.998831 11.303378 55.000892 Z M 11.303378 55.000892 " stroke="#bfbfbf" stroke-width="4.199933" stroke-opacity="1" stroke-miterlimit="4"/><path stroke-linecap="butt" transform="matrix(1.554947, 0.0274697, -0.0274697, 1.554947, 495.116229, 201.255364)" fill="none" stroke-linejoin="miter" d="M 2.8011 55.000699 L 26.545884 55.000751 C 27.324628 54.999555 27.994558 54.384805 27.995873 53.606018 L 27.995292 46.320811 C 27.994051 45.539556 28.611243 44.925738 29.389987 44.924541 C 30.181331 44.925634 30.797616 45.540271 30.796302 46.319059 L 30.798462 53.551483 C 30.797148 54.330271 31.411897 55.000201 32.190641 54.999005 L 55.935425 54.999057 C 56.714213 55.000372 57.384144 54.385623 57.385459 53.606835 L 57.384693 11.613852 C 57.38323 10.82004 56.769457 10.205359 55.990669 10.204044 L 42.048272 10.204161 C 41.267018 10.205402 40.597087 10.820151 40.59855 11.613963 L 40.598938 36.805734 C 40.597623 37.584522 39.982987 38.200807 39.189131 38.199759 C 38.410387 38.200955 37.796614 37.586274 37.795373 36.805019 L 37.795322 11.490147 C 37.795101 10.766653 37.12701 10.205687 36.388448 10.206174 L 22.390757 10.204755 C 21.667264 10.204975 20.996357 10.764475 20.996622 11.49048 L 20.996673 36.805352 C 20.995358 37.58414 20.380721 38.200425 19.601934 38.19911 C 18.808122 38.200573 18.194349 37.585892 18.193152 36.807149 L 18.19523 11.612821 C 18.193812 10.821521 17.579994 10.204329 16.798739 10.20557 L 2.856343 10.205686 C 2.077555 10.204371 1.395068 10.819343 1.394019 11.613199 L 1.394785 53.606182 C 1.39347 54.384969 2.009755 54.999606 2.8011 55.000699 Z M 2.8011 55.000699 " stroke="#bfbfbf" stroke-width="4.199933" stroke-opacity="1" stroke-miterlimit="4"/><path stroke-linecap="butt" transform="matrix(1.551897, 0.101134, -0.101134, 1.551897, 588.99544, 203.333476)" fill="none" stroke-linejoin="miter" d="M 2.857198 54.999849 L 16.799309 54.99994 C 17.579571 54.999434 18.194003 54.385498 18.193497 53.605236 L 18.193177 45.759519 C 18.195177 44.979094 18.809609 44.365159 19.602566 44.366342 C 20.380322 44.365999 20.995344 45.035736 20.995687 45.813492 L 20.995083 53.60641 C 20.995426 54.384166 21.66483 55.000017 22.445091 54.999511 L 36.387203 54.999602 C 37.18016 55.000785 37.796935 54.38418 37.796593 53.606425 L 37.797031 21.63193 C 37.796378 15.017087 32.98482 10.20587 26.367307 10.20418 L 12.823009 10.205853 C 6.220698 10.205689 1.394279 15.015721 1.395096 21.63307 L 1.394494 53.605059 C 1.395 54.385321 2.076936 55.000355 2.857198 54.999849 Z M 19.602741 30.927641 C 18.809947 30.928964 18.193342 30.312189 18.194525 29.519232 L 18.195346 25.051361 C 18.194023 24.258567 18.808292 23.642126 19.601249 23.643309 C 20.381511 23.642803 20.995446 24.257235 20.996769 25.050029 L 20.996112 29.520406 C 20.997435 30.3132 20.380496 30.927298 19.602741 30.927641 Z M 19.602741 30.927641 " stroke="#bfbfbf" stroke-width="4.199933" stroke-opacity="1" stroke-miterlimit="4"/><path stroke-linecap="butt" transform="matrix(1.546284, 0.166194, -0.166194, 1.546284, 652.019975, 207.349757)" fill="none" stroke-linejoin="miter" d="M 2.801217 54.99901 L 16.799114 55.000146 C 17.579659 54.999618 18.194792 54.329738 18.194533 53.55169 L 18.195251 40.443067 C 18.194723 39.662522 18.808269 39.048389 19.601569 39.049017 L 27.996151 39.048629 C 28.774198 39.04837 29.388331 39.661916 29.388859 40.442461 L 29.389051 53.606563 C 29.38931 54.38461 30.003711 55.000654 30.797011 55.001281 L 44.79464 54.99992 C 45.572687 54.999661 46.18782 54.32978 46.190058 53.551465 L 46.188662 39.718044 C 46.189166 36.408644 43.783491 34.004571 40.474091 34.004068 L 39.983965 34.003696 C 39.190665 34.003068 38.574034 33.389791 38.576004 32.608978 C 38.574135 31.815946 39.190178 31.201544 39.983478 31.202172 L 40.476101 31.202276 C 43.782736 31.20055 46.189306 28.794607 46.190077 25.487705 L 46.188296 19.336555 C 46.188595 14.07441 42.334442 10.204187 37.072566 10.206386 L 2.801909 10.206561 C 2.008609 10.205933 1.395063 10.820066 1.394435 11.613366 L 1.393525 53.606789 C 1.393784 54.384836 2.010683 55.000611 2.801217 54.99901 Z M 19.60174 26.170338 C 18.808708 26.172208 18.194307 25.556165 18.194935 24.762865 C 18.194675 23.984817 18.807953 23.368187 19.601253 23.368814 L 27.995834 23.368427 C 28.773882 23.368168 29.388283 23.984211 29.388542 24.762258 C 29.390412 25.55529 28.774637 26.172189 27.993824 26.170219 Z M 19.60174 26.170338 " stroke="#bfbfbf" stroke-width="4.199933" stroke-opacity="1" stroke-miterlimit="4"/><path stroke-linecap="butt" transform="matrix(1.536986, 0.237251, -0.237251, 1.536986, 728.002721, 215.570403)" fill="none" stroke-linejoin="miter" d="M 2.856048 54.999367 L 44.849445 55.000572 C 45.629537 54.999607 46.243561 54.383817 46.242979 53.606208 L 46.243538 42.957235 C 46.242573 42.177143 45.573505 41.563719 44.795512 41.561819 L 19.60169 41.562279 C 18.808803 41.562678 18.193014 40.948653 18.194531 40.168178 C 18.194131 39.375292 18.808539 38.761985 19.601426 38.761586 L 42.60698 38.760891 C 43.387072 38.759925 44.001479 38.146618 44.002996 37.366143 L 44.001256 27.838327 C 44.003155 27.060335 43.331222 26.444811 42.553612 26.445393 L 19.601337 26.445489 C 18.808451 26.445888 18.19476 25.828998 18.194178 25.051388 C 18.193779 24.258502 18.810286 23.642329 19.603172 23.64193 L 44.850657 23.643353 C 45.628266 23.642771 46.244773 23.026598 46.244191 22.248989 L 46.244184 11.612811 C 46.243785 10.819924 45.627995 10.2059 44.850003 10.204 L 2.801228 10.20626 C 2.010823 10.206276 1.393933 10.819966 1.394333 11.612853 L 1.393128 53.60625 C 1.39371 54.383859 2.078439 54.99995 2.856048 54.999367 Z M 2.856048 54.999367 " stroke="#bfbfbf" stroke-width="4.199933" stroke-opacity="1" stroke-miterlimit="4"/><g fill="#000000" fill-opacity="1"><g transform="translate(234.849198, 311.411213)"><g><path d="M 4.304688 -0.664062 L 53.441406 -8.25 C 63.59375 -9.820312 69.851562 -18.363281 68.285156 -28.515625 L 66.796875 -38.15625 C 65.230469 -48.308594 56.6875 -54.566406 46.53125 -53 L 23.210938 -49.398438 C 22.007812 -49.214844 20.914062 -50.011719 20.726562 -51.21875 C 20.542969 -52.421875 21.339844 -53.515625 22.546875 -53.703125 L 61.269531 -59.679688 C 62.476562 -59.867188 63.277344 -60.960938 63.089844 -62.164062 L 60.699219 -77.652344 C 60.511719 -78.859375 59.421875 -79.660156 58.214844 -79.472656 L 9.078125 -71.886719 C -1.078125 -70.320312 -7.335938 -61.777344 -5.765625 -51.621094 L -4.277344 -41.984375 C -2.710938 -31.828125 5.832031 -25.570312 15.988281 -27.136719 L 39.308594 -30.738281 C 40.511719 -30.925781 41.605469 -30.125 41.792969 -28.917969 C 41.976562 -27.714844 41.175781 -26.621094 39.972656 -26.4375 L 1.246094 -20.457031 C 0.0429688 -20.269531 -0.757812 -19.179688 -0.570312 -17.972656 L 1.820312 -2.484375 C 2.003906 -1.277344 3.097656 -0.476562 4.304688 -0.664062 Z M 4.304688 -0.664062 "/></g></g></g><g fill="#000000" fill-opacity="1"><g transform="translate(306.631083, 300.438463)"><g><path d="M 19.816406 -2.210938 L 40.757812 -4.550781 C 50.96875 -5.691406 57.582031 -13.964844 56.441406 -24.175781 L 52.65625 -58.097656 C 51.515625 -68.308594 43.242188 -74.921875 33.03125 -73.78125 L 12.085938 -71.441406 C 1.875 -70.300781 -4.734375 -62.027344 -3.59375 -51.816406 L 0.191406 -17.894531 C 1.332031 -7.683594 9.605469 -1.074219 19.816406 -2.210938 Z M 28.066406 -23.285156 C 26.855469 -23.148438 25.796875 -23.996094 25.660156 -25.207031 L 22.859375 -50.304688 C 22.722656 -51.515625 23.570312 -52.574219 24.78125 -52.707031 C 25.992188 -52.84375 27.050781 -51.996094 27.1875 -50.785156 L 29.988281 -25.691406 C 30.125 -24.480469 29.277344 -23.421875 28.066406 -23.285156 Z M 28.066406 -23.285156 "/></g></g></g><g fill="#000000" fill-opacity="1"><g transform="translate(365.80534, 293.663035)"><g><path d="M 4.429688 -0.308594 L 26.058594 -1.804688 C 27.277344 -1.890625 28.160156 -3 28.074219 -4.214844 L 27.117188 -18.027344 C 27.035156 -19.242188 27.921875 -20.265625 29.140625 -20.347656 L 64.84375 -22.820312 C 66.058594 -22.90625 66.949219 -23.925781 66.863281 -25.144531 L 65.539062 -44.253906 C 65.453125 -45.46875 64.347656 -46.355469 63.128906 -46.269531 L 27.515625 -43.800781 C 26.296875 -43.71875 25.277344 -44.609375 25.191406 -45.824219 C 25.109375 -47.039062 25.996094 -48.0625 27.214844 -48.144531 L 66.390625 -50.859375 C 67.605469 -50.945312 68.496094 -51.964844 68.410156 -53.183594 L 67.089844 -72.292969 C 67.003906 -73.507812 65.980469 -74.398438 64.765625 -74.3125 L -0.472656 -69.792969 C -1.6875 -69.710938 -2.578125 -68.6875 -2.492188 -67.472656 L 2.019531 -2.320312 C 2.105469 -1.105469 3.214844 -0.222656 4.429688 -0.308594 Z M 4.429688 -0.308594 "/></g></g></g><g fill="#000000" fill-opacity="1"><g transform="translate(438.385211, 288.783767)"><g><path d="M 17.582031 -0.5 L 39.253906 -1.117188 C 40.472656 -1.152344 41.402344 -2.222656 41.367188 -3.441406 L 40.179688 -45.132812 C 40.144531 -46.351562 41.164062 -47.339844 42.382812 -47.375 L 51.085938 -47.621094 C 52.304688 -47.65625 53.234375 -48.640625 53.199219 -49.859375 L 52.65625 -69.007812 C 52.621094 -70.140625 51.636719 -71.15625 50.417969 -71.121094 L 2.367188 -69.84375 C 1.148438 -69.808594 0.21875 -68.824219 0.253906 -67.605469 L 0.800781 -48.367188 C 0.835938 -47.152344 1.820312 -46.21875 3.039062 -46.253906 L 11.742188 -46.503906 C 12.960938 -46.539062 14.035156 -45.609375 14.066406 -44.390625 L 15.257812 -2.613281 C 15.292969 -1.394531 16.363281 -0.464844 17.582031 -0.5 Z M 17.582031 -0.5 "/></g></g></g><g fill="#000000" fill-opacity="1"><g transform="translate(493.605396, 286.777437)"><g><path d="M 4.351562 0.078125 L 41.265625 0.730469 C 42.484375 0.75 43.546875 -0.1875 43.570312 -1.40625 L 43.769531 -12.726562 C 43.789062 -13.945312 44.765625 -14.886719 45.984375 -14.863281 C 47.203125 -14.84375 48.144531 -13.867188 48.121094 -12.648438 L 47.921875 -1.417969 C 47.902344 -0.199219 48.839844 0.863281 50.058594 0.882812 L 86.972656 1.535156 C 88.191406 1.558594 89.253906 0.617188 89.277344 -0.601562 L 90.429688 -65.894531 C 90.453125 -67.113281 89.511719 -68.089844 88.292969 -68.109375 L 66.613281 -68.492188 C 65.394531 -68.515625 64.332031 -67.578125 64.3125 -66.359375 L 63.621094 -27.179688 C 63.597656 -25.960938 62.625 -25.019531 61.40625 -25.042969 C 60.1875 -25.0625 59.246094 -26.039062 59.265625 -27.257812 L 59.960938 -66.609375 C 59.980469 -67.742188 58.953125 -68.628906 57.820312 -68.648438 L 36.054688 -69.035156 C 34.921875 -69.054688 33.863281 -68.203125 33.84375 -67.070312 L 33.148438 -27.71875 C 33.125 -26.5 32.152344 -25.558594 30.933594 -25.582031 C 29.714844 -25.601562 28.773438 -26.578125 28.792969 -27.796875 L 29.488281 -66.972656 C 29.507812 -68.191406 28.566406 -69.167969 27.347656 -69.1875 L 5.671875 -69.570312 C 4.453125 -69.59375 3.390625 -68.652344 3.367188 -67.433594 L 2.214844 -2.136719 C 2.195312 -0.917969 3.132812 0.0546875 4.351562 0.078125 Z M 4.351562 0.078125 "/></g></g></g><g fill="#000000" fill-opacity="1"><g transform="translate(583.433095, 288.687838)"><g><path d="M 4.429688 0.289062 L 26.066406 1.699219 C 27.285156 1.777344 28.300781 0.882812 28.382812 -0.332031 L 29.171875 -12.496094 C 29.253906 -13.714844 30.269531 -14.605469 31.488281 -14.527344 C 32.703125 -14.449219 33.59375 -13.34375 33.511719 -12.125 L 32.726562 -0.0507812 C 32.644531 1.167969 33.625 2.191406 34.84375 2.269531 L 56.480469 3.679688 C 57.695312 3.761719 58.714844 2.867188 58.792969 1.648438 L 62.027344 -47.964844 C 62.695312 -58.21875 55.707031 -66.175781 45.457031 -66.84375 L 24.429688 -68.214844 C 14.175781 -68.882812 6.214844 -61.898438 5.546875 -51.644531 L 2.3125 -2.03125 C 2.234375 -0.8125 3.214844 0.210938 4.429688 0.289062 Z M 32.847656 -35.382812 C 31.628906 -35.460938 30.738281 -36.480469 30.816406 -37.695312 L 31.269531 -44.644531 C 31.347656 -45.863281 32.367188 -46.757812 33.582031 -46.675781 C 34.800781 -46.597656 35.691406 -45.578125 35.613281 -44.363281 L 35.160156 -37.410156 C 35.082031 -36.195312 34.0625 -35.300781 32.847656 -35.382812 Z M 32.847656 -35.382812 "/></g></g></g><g fill="#000000" fill-opacity="1"><g transform="translate(642.879297, 292.39536)"><g><path d="M 4.328125 0.464844 L 25.972656 2.792969 C 27.183594 2.921875 28.25 1.984375 28.378906 0.773438 L 30.558594 -19.484375 C 30.6875 -20.699219 31.742188 -21.546875 32.953125 -21.417969 L 45.941406 -20.023438 C 47.152344 -19.890625 48.003906 -18.835938 47.871094 -17.625 L 45.683594 2.722656 C 45.554688 3.933594 46.40625 4.988281 47.617188 5.117188 L 69.261719 7.445312 C 70.472656 7.574219 71.539062 6.636719 71.667969 5.425781 L 73.964844 -15.957031 C 74.515625 -21.066406 71.191406 -25.191406 66.085938 -25.738281 L 65.304688 -25.820312 C 64.09375 -25.953125 63.242188 -27.007812 63.375 -28.21875 C 63.503906 -29.429688 64.558594 -30.28125 65.769531 -30.152344 L 66.550781 -30.066406 C 71.65625 -29.519531 75.78125 -32.839844 76.328125 -37.949219 L 77.351562 -47.472656 C 78.226562 -55.609375 72.894531 -62.226562 64.757812 -63.101562 L 11.773438 -68.796875 C 10.5625 -68.925781 9.507812 -68.078125 9.375 -66.863281 L 2.398438 -1.933594 C 2.265625 -0.71875 3.117188 0.335938 4.328125 0.464844 Z M 35.09375 -41.328125 C 33.882812 -41.460938 33.03125 -42.515625 33.164062 -43.726562 C 33.292969 -44.9375 34.347656 -45.789062 35.558594 -45.660156 L 48.546875 -44.261719 C 49.757812 -44.132812 50.609375 -43.078125 50.476562 -41.867188 C 50.347656 -40.652344 49.292969 -39.804688 48.082031 -39.933594 Z M 35.09375 -41.328125 "/></g></g></g><g fill="#000000" fill-opacity="1"><g transform="translate(714.953895, 300.104621)"><g><path d="M 4.390625 0.675781 L 68.929688 10.640625 C 70.136719 10.828125 71.226562 10.027344 71.414062 8.820312 L 73.9375 -7.53125 C 74.125 -8.734375 73.238281 -9.839844 72.03125 -10.027344 L 33.308594 -16.003906 C 32.101562 -16.191406 31.300781 -17.28125 31.488281 -18.488281 C 31.675781 -19.691406 32.765625 -20.492188 33.972656 -20.308594 L 69.339844 -14.847656 C 70.546875 -14.660156 71.636719 -15.460938 71.824219 -16.667969 L 74.082031 -31.296875 C 74.269531 -32.5 73.382812 -33.605469 72.175781 -33.792969 L 36.894531 -39.238281 C 35.6875 -39.425781 34.890625 -40.519531 35.074219 -41.722656 C 35.261719 -42.925781 36.355469 -43.726562 37.558594 -43.542969 L 76.371094 -37.550781 C 77.574219 -37.363281 78.667969 -38.164062 78.851562 -39.371094 L 81.378906 -55.722656 C 81.5625 -56.925781 80.761719 -58.019531 79.558594 -58.203125 L 14.929688 -68.179688 C 13.726562 -68.367188 12.632812 -67.566406 12.445312 -66.359375 L 2.484375 -1.820312 C 2.296875 -0.613281 3.183594 0.492188 4.390625 0.675781 Z M 4.390625 0.675781 "/></g></g></g><path stroke-linecap="butt" transform="matrix(0.749371, -0.0198533, 0.0198533, 0.749371, 437.385215, 310.041477)" fill="none" stroke-linejoin="miter" d="M 63.208403 55.002548 L 45.255884 55.001284 L 45.259768 37.736911 L 22.719975 37.73922 L 22.716229 54.998383 L 4.768781 55.002466 L 4.77116 12.216655 L 22.71847 12.217781 L 22.719104 29.508337 L 45.25876 29.511238 L 45.258263 12.215473 L 63.205573 12.216599 Z M 63.208403 55.002548 " stroke="#bfbfbf" stroke-width="4.579793" stroke-opacity="1" stroke-miterlimit="4"/><path stroke-linecap="butt" transform="matrix(0.749634, -0.000078209, 0.000078209, 0.749634, 489.041962, 308.720948)" fill="none" stroke-linejoin="miter" d="M 30.083103 55.923322 C 19.64572 55.922233 12.303822 53.758953 8.0522 49.423062 C 4.472708 45.785497 2.680715 40.527537 2.681433 33.654392 L 2.683666 12.248116 L 20.629921 12.244777 L 20.632899 33.651054 C 20.632587 36.636886 21.137797 38.987043 22.153737 40.71716 C 23.602101 43.202899 26.249097 44.443363 30.084301 44.443763 C 33.961192 44.444168 36.613657 43.204256 38.041696 40.718817 C 39.058003 38.931593 39.563704 36.57633 39.564009 33.653029 L 39.566242 12.246753 L 57.512497 12.248625 L 57.510239 33.889391 C 57.509538 40.61142 55.73209 45.785634 52.177893 49.422454 C 47.899312 53.757456 40.536119 55.924412 30.083103 55.923322 Z M 30.083103 55.923322 " stroke="#bfbfbf" stroke-width="4.579793" stroke-opacity="1" stroke-miterlimit="4"/><path stroke-linecap="butt" transform="matrix(0.749373, 0.0197751, -0.0197751, 0.749373, 534.887426, 308.684551)" fill="none" stroke-linejoin="miter" d="M 35.447624 55.000675 L 4.770986 55.00223 L 4.768687 12.247809 L 36.107288 12.244424 C 41.669207 12.243607 46.252661 12.497968 49.847232 13.007784 C 53.446875 13.512253 56.220216 14.309586 58.16698 15.389367 C 60.113881 16.474357 61.437772 17.85206 62.133442 19.522614 C 62.828975 21.187958 63.178814 23.185612 63.17775 25.515712 C 63.116471 27.341771 62.614318 28.856277 61.671289 30.05923 C 60.728261 31.262183 59.625922 32.156579 58.364272 32.742418 C 57.097414 33.328394 55.989685 33.623473 55.035739 33.622583 C 55.974058 33.623885 57.063179 33.808865 58.318729 34.177109 C 59.568933 34.540282 60.78721 35.076317 61.967938 35.769723 C 63.153875 36.462991 64.135298 37.307611 64.922626 38.303309 C 65.704745 39.299145 66.099484 40.430307 66.096561 41.70228 C 66.098876 43.37028 65.904744 44.902721 65.519237 46.294257 C 65.128521 47.68593 64.353008 48.915739 63.192834 49.988893 C 62.027451 51.062184 60.315652 51.972663 58.047018 52.720604 C 55.783456 53.4632 52.816794 54.031479 49.146894 54.420234 C 45.482065 54.803643 40.915779 55.002332 35.447624 55.000675 Z M 34.437429 29.954295 C 37.059511 29.958079 39.094193 29.826196 40.53133 29.569339 C 41.973676 29.312344 42.974474 28.915833 43.528791 28.390362 C 44.083107 27.86489 44.362566 27.195504 44.361821 26.377131 C 44.365873 25.542994 44.087275 24.862271 43.531236 24.334824 C 42.969989 23.807515 41.974617 23.421979 40.534564 23.173283 C 39.089302 22.924724 37.058304 22.801088 34.436358 22.802513 L 22.718138 22.798982 L 22.719346 29.955973 Z M 34.4341 44.445661 C 37.118692 44.447795 39.295667 44.374709 40.965302 44.236821 C 42.634937 44.098933 43.856715 43.779994 44.630775 43.285212 C 45.409906 42.785084 45.795318 41.982585 45.797156 40.867021 C 45.793922 39.756803 45.407569 38.943394 44.633162 38.437348 C 43.858756 37.931302 42.635834 37.614323 40.964398 37.486412 C 39.292824 37.353291 37.117484 37.290804 34.438101 37.288532 L 22.720019 37.29021 L 22.721227 44.447201 Z M 34.4341 44.445661 " stroke="#bfbfbf" stroke-width="4.579793" stroke-opacity="1" stroke-miterlimit="4"/><g fill="#000000" fill-opacity="1"><g transform="translate(438.477145, 351.256891)"><g><path d="M 47.359375 -1.25 L 33.90625 -0.890625 L 33.5625 -13.828125 L 16.6875 -13.390625 L 17.03125 -0.453125 L 3.578125 -0.09375 L 2.734375 -32.140625 L 16.1875 -32.5 L 16.53125 -19.5625 L 33.40625 -20 L 33.0625 -32.9375 L 46.515625 -33.296875 Z M 47.359375 -1.25 "/></g></g></g><g fill="#000000" fill-opacity="1"><g transform="translate(489.046264, 349.950824)"><g><path d="M 22.546875 0.6875 C 14.722656 0.6875 9.21875 -0.929688 6.03125 -4.171875 C 3.351562 -6.898438 2.015625 -10.84375 2.015625 -16 L 2.015625 -32.046875 L 15.46875 -32.046875 L 15.46875 -16 C 15.46875 -13.757812 15.847656 -11.992188 16.609375 -10.703125 C 17.691406 -8.835938 19.671875 -7.90625 22.546875 -7.90625 C 25.453125 -7.90625 27.441406 -8.835938 28.515625 -10.703125 C 29.273438 -12.046875 29.65625 -13.8125 29.65625 -16 L 29.65625 -32.046875 L 43.109375 -32.046875 L 43.109375 -15.828125 C 43.109375 -10.785156 41.773438 -6.898438 39.109375 -4.171875 C 35.898438 -0.929688 30.378906 0.6875 22.546875 0.6875 Z M 22.546875 0.6875 "/></g></g></g><g fill="#000000" fill-opacity="1"><g transform="translate(533.799795, 349.900076)"><g><path d="M 26.546875 0.703125 L 3.578125 0.09375 L 4.421875 -31.9375 L 27.890625 -31.3125 C 32.054688 -31.207031 35.484375 -30.925781 38.171875 -30.46875 C 40.859375 -30.019531 42.921875 -29.367188 44.359375 -28.515625 C 45.796875 -27.671875 46.757812 -26.613281 47.25 -25.34375 C 47.75 -24.082031 47.972656 -22.582031 47.921875 -20.84375 C 47.835938 -19.476562 47.425781 -18.351562 46.6875 -17.46875 C 45.957031 -16.59375 45.113281 -15.945312 44.15625 -15.53125 C 43.207031 -15.113281 42.375 -14.910156 41.65625 -14.921875 C 42.351562 -14.910156 43.171875 -14.753906 44.109375 -14.453125 C 45.046875 -14.160156 45.945312 -13.738281 46.8125 -13.1875 C 47.6875 -12.632812 48.40625 -11.976562 48.96875 -11.21875 C 49.539062 -10.457031 49.816406 -9.601562 49.796875 -8.65625 C 49.765625 -7.40625 49.585938 -6.257812 49.265625 -5.21875 C 48.941406 -4.1875 48.332031 -3.28125 47.4375 -2.5 C 46.550781 -1.71875 45.25 -1.070312 43.53125 -0.5625 C 41.820312 -0.0507812 39.585938 0.3125 36.828125 0.53125 C 34.078125 0.75 30.648438 0.804688 26.546875 0.703125 Z M 26.296875 -18.078125 C 28.265625 -18.023438 29.789062 -18.082031 30.875 -18.25 C 31.957031 -18.425781 32.710938 -18.703125 33.140625 -19.078125 C 33.566406 -19.460938 33.785156 -19.960938 33.796875 -20.578125 C 33.816406 -21.191406 33.625 -21.703125 33.21875 -22.109375 C 32.8125 -22.515625 32.070312 -22.820312 31 -23.03125 C 29.925781 -23.25 28.40625 -23.382812 26.4375 -23.4375 L 17.671875 -23.671875 L 17.53125 -18.3125 Z M 26 -7.21875 C 28.007812 -7.164062 29.640625 -7.175781 30.890625 -7.25 C 32.148438 -7.320312 33.078125 -7.535156 33.671875 -7.890625 C 34.265625 -8.253906 34.570312 -8.851562 34.59375 -9.6875 C 34.613281 -10.519531 34.335938 -11.132812 33.765625 -11.53125 C 33.191406 -11.925781 32.28125 -12.1875 31.03125 -12.3125 C 29.78125 -12.445312 28.148438 -12.539062 26.140625 -12.59375 L 17.375 -12.828125 L 17.234375 -7.453125 Z M 26 -7.21875 "/></g></g></g></svg>