<svg xmlns="http://www.w3.org/2000/svg" xmlns:xlink="http://www.w3.org/1999/xlink" width="1366" zoomAndPan="magnify" viewBox="0 0 1024.5 576" height="768" preserveAspectRatio="xMidYMid meet" version="1.0"><defs><g/><clipPath id="461f7da958"><path d="M 0 0.140625 L 1024 0.140625 L 1024 575.859375 L 0 575.859375 Z M 0 0.140625 " clip-rule="nonzero"/></clipPath><clipPath id="f60afb2dfd"><path d="M 242.472656 280.769531 L 886.714844 280.769531 L 886.714844 356.058594 L 242.472656 356.058594 Z M 242.472656 280.769531 " clip-rule="nonzero"/></clipPath></defs><g clip-path="url(#461f7da958)"><path fill="#ffffff" d="M 0 0.140625 L 1024 0.140625 L 1024 575.859375 L 0 575.859375 Z M 0 0.140625 " fill-opacity="1" fill-rule="nonzero"/><path fill="#f4f4f4" d="M 0 0.140625 L 1024 0.140625 L 1024 575.859375 L 0 575.859375 Z M 0 0.140625 " fill-opacity="1" fill-rule="nonzero"/></g><g fill="#3b3937" fill-opacity="1"><g transform="translate(532.68139, 428.51025)"><g><path d="M 12.921875 0 L 12.921875 -3.6875 L 31.015625 -3.6875 C 39.378906 -3.6875 45.960938 -5.65625 50.765625 -9.59375 C 55.566406 -13.53125 57.96875 -20.054688 57.96875 -29.171875 L 57.96875 -235.546875 C 57.96875 -244.160156 55.566406 -250.375 50.765625 -254.1875 C 45.960938 -258 39.378906 -259.90625 31.015625 -259.90625 L 12.921875 -259.90625 L 12.921875 -263.59375 L 95.25 -263.59375 L 184.21875 -47.25 L 260.640625 -263.59375 L 334.859375 -263.59375 L 334.859375 -259.90625 L 327.09375 -259.90625 C 318.238281 -259.90625 311.472656 -257.9375 306.796875 -254 C 302.117188 -250.0625 299.78125 -243.414062 299.78125 -234.0625 L 299.78125 -29.53125 C 299.78125 -20.175781 302.117188 -13.53125 306.796875 -9.59375 C 311.472656 -5.65625 318.238281 -3.6875 327.09375 -3.6875 L 334.859375 -3.6875 L 334.859375 0 L 231.109375 0 L 231.109375 -3.6875 L 232.953125 -3.6875 C 240.828125 -3.6875 247.039062 -5.59375 251.59375 -9.40625 C 256.15625 -13.226562 258.4375 -19.691406 258.4375 -28.796875 L 258.4375 -245.875 L 172.046875 0 L 160.59375 0 L 61.65625 -241.8125 L 61.65625 -29.53125 C 61.65625 -20.175781 64.113281 -13.53125 69.03125 -9.59375 C 73.957031 -5.65625 81.34375 -3.6875 91.1875 -3.6875 L 100.046875 -3.6875 L 100.046875 0 Z M 12.921875 0 "/></g></g></g><g fill="#3b3937" fill-opacity="1"><g transform="translate(288.832669, 401.772725)"><g><path d="M 94.875 3.6875 C 68.789062 3.6875 49.101562 -1.351562 35.8125 -11.4375 C 22.519531 -21.53125 15.875 -33.59375 15.875 -47.625 C 15.875 -56.976562 18.703125 -63.992188 24.359375 -68.671875 C 30.023438 -73.347656 37.410156 -75.6875 46.515625 -75.6875 C 46.765625 -48.851562 51.316406 -29.53125 60.171875 -17.71875 C 69.035156 -5.90625 81.957031 0 98.9375 0 C 114.445312 0 127.0625 -4.425781 136.78125 -13.28125 C 146.5 -22.144531 151.359375 -35.191406 151.359375 -52.421875 C 151.359375 -63.742188 149.144531 -72.910156 144.71875 -79.921875 C 140.289062 -86.941406 133.519531 -93.21875 124.40625 -98.75 C 115.300781 -104.289062 103.488281 -110.382812 88.96875 -117.03125 C 76.914062 -122.445312 65.71875 -128.535156 55.375 -135.296875 C 45.039062 -142.066406 36.734375 -150.375 30.453125 -160.21875 C 24.179688 -170.070312 21.046875 -182.503906 21.046875 -197.515625 C 21.046875 -219.910156 28.425781 -237.140625 43.1875 -249.203125 C 57.957031 -261.265625 78.019531 -267.296875 103.375 -267.296875 C 125.519531 -267.296875 143.175781 -263.109375 156.34375 -254.734375 C 169.519531 -246.367188 176.109375 -236.398438 176.109375 -224.828125 C 176.109375 -217.203125 173.09375 -211.113281 167.0625 -206.5625 C 161.03125 -202.007812 152.84375 -199.734375 142.5 -199.734375 C 142.5 -220.898438 139.238281 -236.773438 132.71875 -247.359375 C 126.195312 -257.941406 115.304688 -263.234375 100.046875 -263.234375 C 87.003906 -263.234375 76.175781 -259.351562 67.5625 -251.59375 C 58.945312 -243.84375 54.640625 -231.597656 54.640625 -214.859375 C 54.640625 -203.546875 56.789062 -194.195312 61.09375 -186.8125 C 65.40625 -179.425781 72.175781 -172.898438 81.40625 -167.234375 C 90.632812 -161.578125 102.382812 -155.550781 116.65625 -149.15625 C 130.445312 -143.25 142.570312 -137.03125 153.03125 -130.5 C 163.488281 -123.976562 171.671875 -116.039062 177.578125 -106.6875 C 183.484375 -97.34375 186.4375 -85.53125 186.4375 -71.25 C 186.4375 -48.363281 178.5 -30.148438 162.625 -16.609375 C 146.75 -3.078125 124.164062 3.6875 94.875 3.6875 Z M 94.875 3.6875 "/></g></g></g><g fill="#3b3937" fill-opacity="1"><g transform="translate(376.737411, 378.249351)"><g><path d="M 4.042969 -4.917969 C 5.394531 -4.59375 6.316406 -4.242188 6.808594 -3.84375 C 7.144531 -3.566406 7.316406 -3.210938 7.316406 -2.78125 C 7.316406 -2.351562 7.222656 -1.996094 7.039062 -1.75 C 6.578125 -1.105469 5.746094 -0.785156 4.578125 -0.785156 C 2.949219 -0.785156 2.027344 -1.335938 1.828125 -2.445312 L 0.570312 -2.445312 C 0.9375 -0.675781 2.273438 0.199219 4.578125 0.199219 C 5.609375 0.199219 6.46875 -0.015625 7.160156 -0.476562 C 7.992188 -1.015625 8.421875 -1.8125 8.421875 -2.859375 C 8.421875 -3.71875 8.082031 -4.378906 7.40625 -4.839844 C 6.929688 -5.179688 6.164062 -5.484375 5.101562 -5.761719 C 4.027344 -6.039062 3.335938 -6.269531 3.011719 -6.4375 C 2.304688 -6.792969 1.953125 -7.285156 1.96875 -7.929688 C 1.96875 -8.269531 2.027344 -8.558594 2.183594 -8.773438 C 2.582031 -9.375 3.289062 -9.679688 4.304688 -9.679688 C 5.730469 -9.679688 6.546875 -9.21875 6.761719 -8.328125 L 7.929688 -8.328125 C 7.546875 -9.835938 6.332031 -10.605469 4.304688 -10.605469 C 3.378906 -10.605469 2.566406 -10.359375 1.890625 -9.867188 C 1.199219 -9.375 0.84375 -8.652344 0.84375 -7.667969 C 0.84375 -6.332031 1.921875 -5.410156 4.042969 -4.917969 Z M 4.042969 -4.917969 "/></g></g></g><g fill="#3b3937" fill-opacity="1"><g transform="translate(397.360613, 378.249351)"><g><path d="M 10.359375 -5.253906 C 10.359375 -4.058594 9.925781 -3.042969 9.097656 -2.214844 C 8.253906 -1.367188 7.238281 -0.953125 6.054688 -0.953125 C 4.871094 -0.953125 3.855469 -1.367188 3.027344 -2.214844 C 2.183594 -3.042969 1.765625 -4.058594 1.765625 -5.253906 C 1.765625 -6.421875 2.183594 -7.4375 3.027344 -8.28125 C 3.855469 -9.113281 4.871094 -9.542969 6.054688 -9.542969 C 7.238281 -9.542969 8.253906 -9.113281 9.097656 -8.28125 C 9.925781 -7.4375 10.359375 -6.421875 10.359375 -5.253906 Z M 11.433594 -5.253906 C 11.433594 -5.992188 11.28125 -6.683594 11.003906 -7.34375 C 10.726562 -7.992188 10.34375 -8.558594 9.851562 -9.050781 C 9.359375 -9.527344 8.789062 -9.910156 8.144531 -10.1875 C 7.484375 -10.464844 6.792969 -10.617188 6.054688 -10.617188 C 5.316406 -10.617188 4.609375 -10.464844 3.964844 -10.1875 C 3.320312 -9.910156 2.75 -9.527344 2.257812 -9.050781 C 1.765625 -8.558594 1.382812 -7.992188 1.105469 -7.34375 C 0.828125 -6.683594 0.691406 -5.992188 0.691406 -5.253906 C 0.691406 -4.519531 0.828125 -3.8125 1.105469 -3.164062 C 1.382812 -2.503906 1.765625 -1.9375 2.257812 -1.445312 C 2.75 -0.953125 3.320312 -0.570312 3.964844 -0.292969 C 4.609375 -0.015625 5.316406 0.121094 6.054688 0.121094 C 6.792969 0.121094 7.484375 -0.015625 8.144531 -0.292969 C 8.789062 -0.570312 9.359375 -0.953125 9.851562 -1.445312 C 10.34375 -1.9375 10.726562 -2.503906 11.003906 -3.164062 C 11.28125 -3.8125 11.433594 -4.519531 11.433594 -5.253906 Z M 11.433594 -5.253906 "/></g></g></g><g fill="#3b3937" fill-opacity="1"><g transform="translate(421.287842, 378.249351)"><g><path d="M 7.359375 -9.449219 L 7.359375 -10.449219 L 1.152344 -10.449219 L 1.152344 0 L 2.226562 0 L 2.226562 -4.71875 L 7.207031 -4.71875 L 7.207031 -5.730469 L 2.226562 -5.730469 L 2.226562 -9.449219 Z M 7.359375 -9.449219 "/></g></g></g><g fill="#3b3937" fill-opacity="1"><g transform="translate(440.758472, 378.249351)"><g><path d="M 0.308594 -9.480469 L 2.84375 -9.480469 L 2.84375 -0.03125 L 3.917969 -0.03125 L 3.917969 -9.480469 L 6.453125 -9.480469 L 6.453125 -10.480469 L 0.308594 -10.480469 Z M 0.308594 -9.480469 "/></g></g></g><g fill="#3b3937" fill-opacity="1"><g transform="translate(459.32243, 378.249351)"><g><path d="M 9.449219 0.84375 L 11.878906 -10.449219 L 10.789062 -10.449219 L 9.160156 -2.859375 L 6.023438 -11.066406 L 2.875 -2.859375 L 1.261719 -10.449219 L 0.152344 -10.449219 L 2.597656 0.84375 L 6.023438 -8.253906 Z M 9.449219 0.84375 "/></g></g></g><g fill="#3b3937" fill-opacity="1"><g transform="translate(483.157472, 378.249351)"><g><path d="M 2.84375 -3.84375 L 4.75 -8.652344 L 6.640625 -3.84375 Z M 9.328125 0 L 4.75 -11.171875 L 0.152344 0 L 1.320312 0 L 2.445312 -2.84375 L 7.039062 -2.84375 L 8.160156 0 Z M 9.328125 0 "/></g></g></g><g fill="#3b3937" fill-opacity="1"><g transform="translate(504.441488, 378.249351)"><g><path d="M 2.226562 -5.164062 L 2.226562 -9.421875 L 4.65625 -9.421875 C 5.285156 -9.421875 5.792969 -9.21875 6.175781 -8.820312 C 6.546875 -8.421875 6.746094 -7.929688 6.746094 -7.316406 C 6.746094 -6.699219 6.546875 -6.191406 6.148438 -5.777344 C 5.746094 -5.363281 5.253906 -5.164062 4.65625 -5.164062 Z M 7.820312 -7.300781 C 7.820312 -8.191406 7.484375 -8.960938 6.839844 -9.558594 C 6.207031 -10.140625 5.425781 -10.449219 4.503906 -10.449219 L 1.152344 -10.449219 L 1.152344 0 L 2.226562 0 L 2.226562 -4.132812 L 3.472656 -4.132812 L 6.546875 0 L 7.992188 0 L 4.765625 -4.132812 C 5.578125 -4.179688 6.269531 -4.472656 6.839844 -5.011719 C 7.484375 -5.609375 7.820312 -6.378906 7.820312 -7.300781 Z M 7.820312 -7.300781 "/></g></g></g><g fill="#3b3937" fill-opacity="1"><g transform="translate(524.603669, 378.249351)"><g><path d="M 7.359375 0 L 7.359375 -1 L 2.226562 -1 L 2.226562 -4.71875 L 7.207031 -4.71875 L 7.207031 -5.730469 L 2.226562 -5.730469 L 2.226562 -9.449219 L 7.359375 -9.449219 L 7.359375 -10.449219 L 1.152344 -10.449219 L 1.152344 0 Z M 7.359375 0 "/></g></g></g><g fill="#3b3937" fill-opacity="1"><g transform="translate(367.632986, 393.61682)"><g><path d="M 9.265625 -5.226562 C 9.265625 -5.976562 9.113281 -6.667969 8.835938 -7.316406 C 8.558594 -7.960938 8.175781 -8.511719 7.699219 -8.972656 C 7.207031 -9.4375 6.640625 -9.789062 5.992188 -10.050781 C 5.332031 -10.3125 4.625 -10.449219 3.886719 -10.449219 L 1.152344 -10.449219 L 1.152344 0 L 3.886719 0 C 4.625 0 5.332031 -0.121094 5.992188 -0.382812 C 6.640625 -0.644531 7.207031 -1.015625 7.699219 -1.476562 C 8.175781 -1.9375 8.558594 -2.472656 8.835938 -3.121094 C 9.113281 -3.765625 9.265625 -4.457031 9.265625 -5.226562 Z M 8.222656 -5.226562 C 8.222656 -4.027344 7.792969 -3.027344 6.960938 -2.242188 C 6.132812 -1.460938 5.117188 -1.074219 3.917969 -1.074219 L 2.226562 -1.074219 L 2.226562 -9.375 L 3.917969 -9.375 C 5.117188 -9.375 6.132812 -8.972656 6.960938 -8.207031 C 7.792969 -7.40625 8.222656 -6.410156 8.222656 -5.226562 Z M 8.222656 -5.226562 "/></g></g></g><g fill="#3b3937" fill-opacity="1"><g transform="translate(389.393401, 393.61682)"><g><path d="M 7.359375 0 L 7.359375 -1 L 2.226562 -1 L 2.226562 -4.71875 L 7.207031 -4.71875 L 7.207031 -5.730469 L 2.226562 -5.730469 L 2.226562 -9.449219 L 7.359375 -9.449219 L 7.359375 -10.449219 L 1.152344 -10.449219 L 1.152344 0 Z M 7.359375 0 "/></g></g></g><g fill="#3b3937" fill-opacity="1"><g transform="translate(409.709246, 393.61682)"><g><path d="M 4.902344 0.628906 L 9.636719 -10.449219 L 8.46875 -10.449219 L 4.902344 -2.027344 L 1.320312 -10.449219 L 0.152344 -10.449219 Z M 4.902344 0.628906 "/></g></g></g><g fill="#3b3937" fill-opacity="1"><g transform="translate(431.300614, 393.61682)"><g><path d="M 7.359375 0 L 7.359375 -1 L 2.226562 -1 L 2.226562 -4.71875 L 7.207031 -4.71875 L 7.207031 -5.730469 L 2.226562 -5.730469 L 2.226562 -9.449219 L 7.359375 -9.449219 L 7.359375 -10.449219 L 1.152344 -10.449219 L 1.152344 0 Z M 7.359375 0 "/></g></g></g><g fill="#3b3937" fill-opacity="1"><g transform="translate(451.616459, 393.61682)"><g><path d="M 2.226562 -1.074219 L 2.226562 -10.449219 L 1.152344 -10.449219 L 1.152344 0 L 5.960938 0 L 5.960938 -1.074219 Z M 2.226562 -1.074219 "/></g></g></g><g fill="#3b3937" fill-opacity="1"><g transform="translate(469.688661, 393.61682)"><g><path d="M 10.359375 -5.253906 C 10.359375 -4.058594 9.925781 -3.042969 9.097656 -2.214844 C 8.253906 -1.367188 7.238281 -0.953125 6.054688 -0.953125 C 4.871094 -0.953125 3.855469 -1.367188 3.027344 -2.214844 C 2.183594 -3.042969 1.765625 -4.058594 1.765625 -5.253906 C 1.765625 -6.421875 2.183594 -7.4375 3.027344 -8.28125 C 3.855469 -9.113281 4.871094 -9.542969 6.054688 -9.542969 C 7.238281 -9.542969 8.253906 -9.113281 9.097656 -8.28125 C 9.925781 -7.4375 10.359375 -6.421875 10.359375 -5.253906 Z M 11.433594 -5.253906 C 11.433594 -5.992188 11.28125 -6.683594 11.003906 -7.34375 C 10.726562 -7.992188 10.34375 -8.558594 9.851562 -9.050781 C 9.359375 -9.527344 8.789062 -9.910156 8.144531 -10.1875 C 7.484375 -10.464844 6.792969 -10.617188 6.054688 -10.617188 C 5.316406 -10.617188 4.609375 -10.464844 3.964844 -10.1875 C 3.320312 -9.910156 2.75 -9.527344 2.257812 -9.050781 C 1.765625 -8.558594 1.382812 -7.992188 1.105469 -7.34375 C 0.828125 -6.683594 0.691406 -5.992188 0.691406 -5.253906 C 0.691406 -4.519531 0.828125 -3.8125 1.105469 -3.164062 C 1.382812 -2.503906 1.765625 -1.9375 2.257812 -1.445312 C 2.75 -0.953125 3.320312 -0.570312 3.964844 -0.292969 C 4.609375 -0.015625 5.316406 0.121094 6.054688 0.121094 C 6.792969 0.121094 7.484375 -0.015625 8.144531 -0.292969 C 8.789062 -0.570312 9.359375 -0.953125 9.851562 -1.445312 C 10.34375 -1.9375 10.726562 -2.503906 11.003906 -3.164062 C 11.28125 -3.8125 11.433594 -4.519531 11.433594 -5.253906 Z M 11.433594 -5.253906 "/></g></g></g><g fill="#3b3937" fill-opacity="1"><g transform="translate(493.615895, 393.61682)"><g><path d="M 2.226562 -5.179688 L 2.226562 -9.421875 L 4.65625 -9.421875 C 5.285156 -9.421875 5.792969 -9.21875 6.175781 -8.835938 C 6.546875 -8.4375 6.746094 -7.945312 6.746094 -7.332031 C 6.746094 -6.699219 6.546875 -6.191406 6.148438 -5.777344 C 5.746094 -5.378906 5.253906 -5.179688 4.65625 -5.179688 Z M 7.820312 -7.300781 C 7.820312 -8.222656 7.484375 -8.972656 6.839844 -9.574219 C 6.191406 -10.15625 5.425781 -10.449219 4.503906 -10.449219 L 1.152344 -10.449219 L 1.152344 0 L 2.226562 0 L 2.226562 -4.132812 L 4.503906 -4.132812 C 5.425781 -4.132812 6.207031 -4.425781 6.839844 -5.011719 C 7.484375 -5.625 7.820312 -6.378906 7.820312 -7.300781 Z M 7.820312 -7.300781 "/></g></g></g><g fill="#3b3937" fill-opacity="1"><g transform="translate(513.547555, 393.61682)"><g><path d="M 7.359375 0 L 7.359375 -1 L 2.226562 -1 L 2.226562 -4.71875 L 7.207031 -4.71875 L 7.207031 -5.730469 L 2.226562 -5.730469 L 2.226562 -9.449219 L 7.359375 -9.449219 L 7.359375 -10.449219 L 1.152344 -10.449219 L 1.152344 0 Z M 7.359375 0 "/></g></g></g><g fill="#3b3937" fill-opacity="1"><g transform="translate(533.863405, 393.61682)"><g><path d="M 2.226562 -5.164062 L 2.226562 -9.421875 L 4.65625 -9.421875 C 5.285156 -9.421875 5.792969 -9.21875 6.175781 -8.820312 C 6.546875 -8.421875 6.746094 -7.929688 6.746094 -7.316406 C 6.746094 -6.699219 6.546875 -6.191406 6.148438 -5.777344 C 5.746094 -5.363281 5.253906 -5.164062 4.65625 -5.164062 Z M 7.820312 -7.300781 C 7.820312 -8.191406 7.484375 -8.960938 6.839844 -9.558594 C 6.207031 -10.140625 5.425781 -10.449219 4.503906 -10.449219 L 1.152344 -10.449219 L 1.152344 0 L 2.226562 0 L 2.226562 -4.132812 L 3.472656 -4.132812 L 6.546875 0 L 7.992188 0 L 4.765625 -4.132812 C 5.578125 -4.179688 6.269531 -4.472656 6.839844 -5.011719 C 7.484375 -5.609375 7.820312 -6.378906 7.820312 -7.300781 Z M 7.820312 -7.300781 "/></g></g></g><g clip-path="url(#f60afb2dfd)"><path fill="#f4f4f4" d="M 242.472656 280.769531 L 886.714844 280.769531 L 886.714844 356.058594 L 242.472656 356.058594 Z M 242.472656 280.769531 " fill-opacity="1" fill-rule="nonzero"/></g><g fill="#967f71" fill-opacity="1"><g transform="translate(401.043689, 334.623295)"><g><path d="M 23.078125 -4.457031 C 24.925781 -10.089844 19.894531 -15.152344 15.058594 -20.085938 C 10.441406 -24.765625 6.046875 -29.222656 8.179688 -33.488281 C 9.773438 -36.734375 14.613281 -36.386719 17.347656 -35.875 C 24.703125 -34.476562 32.789062 -29.253906 33.105469 -25.722656 C 33.203125 -24.449219 32.214844 -23.398438 30.113281 -22.601562 C 27.183594 -21.804688 24.128906 -21.648438 21.136719 -22.058594 C 20.691406 -22.125 20.277344 -21.804688 20.214844 -21.359375 C 20.148438 -20.914062 20.46875 -20.5 20.914062 -20.40625 C 24.191406 -19.925781 27.503906 -20.148438 30.71875 -21.042969 C 34.285156 -22.378906 34.890625 -24.414062 34.761719 -25.847656 C 34.347656 -30.6875 25.210938 -36.066406 17.667969 -37.5 C 12.128906 -38.550781 8.246094 -37.371094 6.683594 -34.21875 C 4.011719 -28.90625 9.039062 -23.8125 13.878906 -18.910156 C 18.367188 -14.355469 23.015625 -9.644531 21.519531 -4.964844 C 20.5625 -2.003906 15.566406 -0.953125 11.363281 -1.242188 C 7.035156 -1.527344 3.628906 -3.085938 3.277344 -4.933594 C 3.085938 -5.921875 3.597656 -8.59375 12.097656 -12.480469 C 12.351562 -12.605469 12.542969 -12.859375 12.574219 -13.179688 C 12.605469 -13.464844 12.480469 -13.785156 12.222656 -13.941406 C 11.96875 -14.101562 11.652344 -14.132812 11.394531 -14.007812 C 4.359375 -10.792969 1.082031 -7.640625 1.625 -4.648438 C 2.226562 -1.335938 7.195312 0.160156 11.269531 0.414062 C 11.746094 0.445312 12.222656 0.476562 12.703125 0.476562 C 17.03125 0.476562 21.902344 -0.796875 23.078125 -4.457031 Z M 23.078125 -4.457031 "/></g></g></g><g fill="#967f71" fill-opacity="1"><g transform="translate(428.153434, 334.623295)"><g><path d="M 26.613281 -7.703125 C 26.292969 -8.054688 25.753906 -8.085938 25.402344 -7.765625 C 25.308594 -7.671875 15.851562 0.828125 9.996094 -3.023438 C 7.671875 -4.550781 7.097656 -8.246094 7.097656 -8.277344 C 7.066406 -8.660156 6.78125 -8.945312 6.398438 -9.007812 C 6.046875 -9.039062 5.667969 -8.847656 5.507812 -8.53125 C 4.011719 -5.21875 1.367188 -1.019531 0.636719 -1.496094 C 0.574219 -1.496094 0.445312 -1.625 0.351562 -1.847656 C -0.03125 -2.898438 0.09375 -4.042969 0.636719 -5.03125 C 1.847656 -7.511719 4.074219 -9.296875 6.75 -9.964844 C 7.035156 -10.027344 7.257812 -10.25 7.351562 -10.535156 C 7.449219 -10.824219 7.351562 -11.140625 7.164062 -11.363281 C 6.941406 -11.554688 6.652344 -11.652344 6.367188 -11.585938 C 3.183594 -10.824219 0.542969 -8.660156 -0.890625 -5.730469 C -1.65625 -4.296875 -1.75 -2.578125 -1.144531 -1.082031 C -0.859375 -0.351562 -0.160156 0.160156 0.636719 0.160156 L 0.667969 0.160156 C 2.226562 0.128906 4.171875 -1.816406 5.507812 -3.914062 C 5.667969 -4.171875 5.953125 -4.296875 6.238281 -4.265625 C 6.527344 -4.265625 6.78125 -4.105469 6.90625 -3.851562 C 7.449219 -2.960938 8.179688 -2.195312 9.074219 -1.65625 C 16.011719 2.960938 26.101562 -6.144531 26.546875 -6.527344 C 26.707031 -6.683594 26.804688 -6.90625 26.804688 -7.097656 C 26.835938 -7.320312 26.738281 -7.542969 26.613281 -7.703125 Z M 26.613281 -7.703125 "/></g></g></g><g fill="#967f71" fill-opacity="1"><g transform="translate(453.863149, 334.623295)"><g><path d="M 27.820312 -7.925781 C 27.632812 -8.054688 27.441406 -8.148438 27.21875 -8.148438 C 26.996094 -8.117188 26.773438 -8.023438 26.644531 -7.863281 C 26.546875 -7.800781 19.546875 -0.316406 13.464844 -2.769531 C 12.160156 -3.46875 11.109375 -4.519531 10.378906 -5.824219 C 10.121094 -6.238281 9.804688 -6.652344 9.421875 -7.035156 C 9.007812 -7.542969 8.371094 -7.832031 7.703125 -7.863281 C 6.082031 -7.988281 4.105469 -6.90625 1.75 -4.679688 C 1.6875 -4.617188 1.589844 -4.582031 1.496094 -4.648438 C 1.402344 -4.679688 1.335938 -4.808594 1.367188 -4.902344 L 2.070312 -8.023438 C 2.195312 -8.46875 1.910156 -8.945312 1.464844 -9.039062 C 1.019531 -9.136719 0.574219 -8.847656 0.445312 -8.402344 L -1.144531 -1.433594 C -1.242188 -1.050781 -1.050781 -0.667969 -0.699219 -0.507812 C -0.351562 -0.316406 0.0625 -0.414062 0.316406 -0.699219 C 4.582031 -5.699219 6.75 -6.175781 7.511719 -6.207031 C 8.277344 -6.238281 8.753906 -5.253906 9.007812 -4.871094 C 9.898438 -3.3125 11.238281 -2.039062 12.828125 -1.242188 C 19.960938 1.65625 27.535156 -6.398438 27.855469 -6.75 C 28.171875 -7.066406 28.140625 -7.609375 27.820312 -7.925781 Z M 27.820312 -7.925781 "/></g></g></g><g fill="#967f71" fill-opacity="1"><g transform="translate(480.368328, 334.623295)"><g><path d="M 21.835938 -8.660156 C 21.519531 -8.976562 20.976562 -8.976562 20.660156 -8.625 C 20.597656 -8.5625 11.96875 0.128906 6.238281 -2.039062 C 3.691406 -3.023438 2.609375 -5.984375 2.195312 -8.914062 C 2.769531 -10.3125 3.722656 -12.636719 4.617188 -15.25 C 4.710938 -15.566406 4.808594 -15.597656 5.1875 -15.628906 C 9.484375 -15.949219 13.75 -16.109375 16.265625 -16.109375 C 16.746094 -16.109375 17.09375 -16.488281 17.09375 -16.933594 C 17.09375 -17.414062 16.746094 -17.761719 16.265625 -17.761719 C 13.847656 -17.761719 9.867188 -17.570312 5.792969 -17.347656 C 5.632812 -17.316406 5.347656 -17.414062 5.570312 -17.984375 C 7.097656 -22.347656 8.179688 -26.773438 7.511719 -28.109375 C 6.84375 -29.445312 5.953125 -29.476562 5.507812 -29.382812 C 3.152344 -28.9375 1.433594 -22.824219 0.667969 -17.828125 C 0.605469 -17.382812 0.382812 -17 -0.03125 -16.96875 C -5.03125 -16.585938 -9.136719 -16.296875 -9.199219 -16.296875 C -9.675781 -16.265625 -10.027344 -15.882812 -9.996094 -15.40625 C -9.996094 -14.960938 -9.613281 -14.578125 -9.136719 -14.613281 L -9.074219 -14.613281 C -8.976562 -14.613281 -5.125 -14.898438 -0.316406 -15.25 C -0.160156 -15.28125 0 -15.25 0.128906 -15.121094 C 0.253906 -15.023438 0.351562 -14.867188 0.351562 -14.707031 C -0.128906 -7.128906 1.78125 -1.941406 5.632812 -0.476562 C 6.460938 -0.191406 7.320312 -0.03125 8.214844 -0.03125 C 14.515625 -0.03125 21.519531 -7.128906 21.871094 -7.449219 C 22.027344 -7.609375 22.09375 -7.832031 22.09375 -8.054688 C 22.09375 -8.277344 21.996094 -8.5 21.835938 -8.660156 Z M 2.355469 -17.890625 C 3.085938 -22.730469 4.550781 -26.546875 5.410156 -27.535156 C 5.507812 -27.597656 5.632812 -27.632812 5.761719 -27.597656 C 5.855469 -27.566406 5.953125 -27.503906 6.015625 -27.375 C 6.398438 -26.546875 5.316406 -22.507812 3.691406 -17.699219 C 3.628906 -17.414062 3.40625 -17.191406 3.085938 -17.15625 C 2.929688 -17.125 2.769531 -17.125 2.578125 -17.125 C 2.261719 -17.125 2.324219 -17.636719 2.355469 -17.859375 Z M 1.972656 -12.890625 C 1.65625 -12.890625 1.78125 -15.121094 2.070312 -15.4375 C 2.324219 -15.597656 2.640625 -15.628906 2.898438 -15.472656 C 3.183594 -15.214844 2.324219 -12.890625 1.972656 -12.890625 Z M 1.972656 -12.890625 "/></g></g></g><g fill="#967f71" fill-opacity="1"><g transform="translate(500.700637, 334.623295)"><g><path d="M 20.628906 -8.59375 C 20.277344 -8.914062 19.769531 -8.914062 19.449219 -8.5625 C 19.324219 -8.46875 9.007812 2.039062 2.164062 -2.960938 C 0.0625 -4.488281 2.101562 -8.46875 2.132812 -8.5 C 2.324219 -8.914062 2.164062 -9.390625 1.75 -9.613281 C 1.335938 -9.804688 0.859375 -9.675781 0.636719 -9.261719 C 0.507812 -9.074219 -2.070312 -4.011719 1.179688 -1.625 C 2.675781 -0.507812 4.519531 0.09375 6.398438 0.0625 C 13.273438 0.0625 20.246094 -7.035156 20.628906 -7.417969 C 20.785156 -7.578125 20.882812 -7.765625 20.882812 -7.988281 C 20.851562 -8.214844 20.785156 -8.4375 20.628906 -8.59375 Z M 0.285156 -11.109375 C 0.414062 -11.109375 0.542969 -11.140625 0.667969 -11.207031 C 1.433594 -11.585938 2.101562 -12.097656 2.707031 -12.703125 C 3.023438 -13.050781 2.992188 -13.5625 2.675781 -13.878906 C 2.324219 -14.199219 1.816406 -14.199219 1.496094 -13.847656 C 1.019531 -13.371094 0.476562 -12.988281 -0.128906 -12.667969 C -0.445312 -12.511719 -0.636719 -12.097656 -0.542969 -11.746094 C -0.445312 -11.363281 -0.09375 -11.109375 0.285156 -11.109375 Z M 0.285156 -11.109375 "/></g></g></g><g fill="#967f71" fill-opacity="1"><g transform="translate(520.23748, 334.623295)"><g><path d="M 27.820312 -7.925781 C 27.632812 -8.054688 27.441406 -8.148438 27.21875 -8.148438 C 26.996094 -8.117188 26.773438 -8.023438 26.644531 -7.863281 C 26.546875 -7.800781 19.546875 -0.316406 13.464844 -2.769531 C 12.160156 -3.46875 11.109375 -4.519531 10.378906 -5.824219 C 10.121094 -6.238281 9.804688 -6.652344 9.421875 -7.035156 C 9.007812 -7.542969 8.371094 -7.832031 7.703125 -7.863281 C 6.082031 -7.988281 4.105469 -6.90625 1.75 -4.679688 C 1.6875 -4.617188 1.589844 -4.582031 1.496094 -4.648438 C 1.402344 -4.679688 1.335938 -4.808594 1.367188 -4.902344 L 2.070312 -8.023438 C 2.195312 -8.46875 1.910156 -8.945312 1.464844 -9.039062 C 1.019531 -9.136719 0.574219 -8.847656 0.445312 -8.402344 L -1.144531 -1.433594 C -1.242188 -1.050781 -1.050781 -0.667969 -0.699219 -0.507812 C -0.351562 -0.316406 0.0625 -0.414062 0.316406 -0.699219 C 4.582031 -5.699219 6.75 -6.175781 7.511719 -6.207031 C 8.277344 -6.238281 8.753906 -5.253906 9.007812 -4.871094 C 9.898438 -3.3125 11.238281 -2.039062 12.828125 -1.242188 C 19.960938 1.65625 27.535156 -6.398438 27.855469 -6.75 C 28.171875 -7.066406 28.140625 -7.609375 27.820312 -7.925781 Z M 27.820312 -7.925781 "/></g></g></g><g fill="#967f71" fill-opacity="1"><g transform="translate(546.74266, 334.623295)"><g><path d="M 23.207031 -9.039062 C 23.046875 -9.199219 22.855469 -9.261719 22.632812 -9.261719 C 22.410156 -9.261719 22.1875 -9.199219 22.027344 -9.039062 C 18.207031 -5.21875 12.796875 -3.46875 7.480469 -4.359375 C 7.066406 -4.457031 6.78125 -4.839844 6.84375 -5.253906 C 7.097656 -6.78125 6.972656 -8.339844 6.082031 -8.847656 C 5.507812 -9.167969 4.648438 -9.199219 3.628906 -7.480469 C 3.246094 -6.90625 3.121094 -6.207031 3.246094 -5.539062 C 3.40625 -4.871094 3.820312 -4.265625 4.394531 -3.914062 C 4.742188 -3.628906 4.328125 -3.152344 4.105469 -2.929688 C 3.5 -2.195312 2.449219 -2.070312 1.71875 -2.640625 C 0.796875 -3.054688 0.382812 -4.074219 0.730469 -4.996094 C 1.144531 -6.683594 2.800781 -8.148438 3.40625 -8.148438 C 3.851562 -8.148438 4.234375 -8.53125 4.234375 -8.976562 C 4.265625 -9.421875 3.882812 -9.804688 3.4375 -9.835938 L 3.40625 -9.835938 C 1.816406 -9.835938 -0.316406 -7.671875 -0.890625 -5.410156 C -1.433594 -3.757812 -0.667969 -1.941406 0.921875 -1.179688 C 1.527344 -0.828125 2.195312 -0.667969 2.898438 -0.636719 C 4.265625 -0.699219 5.476562 -1.527344 6.046875 -2.800781 C 6.113281 -2.898438 6.269531 -2.960938 6.398438 -2.929688 C 10.441406 -1.71875 17.828125 -2.484375 23.207031 -7.832031 C 23.367188 -7.988281 23.460938 -8.214844 23.460938 -8.4375 C 23.460938 -8.660156 23.367188 -8.882812 23.207031 -9.039062 Z M 5.1875 -5.410156 C 4.839844 -5.730469 4.773438 -6.238281 5.0625 -6.621094 C 5.15625 -6.78125 5.21875 -6.875 5.285156 -6.972656 C 5.316406 -6.460938 5.285156 -5.921875 5.1875 -5.410156 Z M 5.1875 -5.410156 "/></g></g></g><g fill="#967f71" fill-opacity="1"><g transform="translate(568.729557, 334.623295)"><g/></g></g><g fill="#967f71" fill-opacity="1"><g transform="translate(580.566207, 334.623295)"><g><path d="M 34.921875 -8.085938 C 34.570312 -8.371094 34.03125 -8.308594 33.742188 -7.957031 C 33.679688 -7.863281 26.582031 0.796875 20.054688 -2.992188 C 19.195312 -3.597656 18.527344 -4.425781 18.175781 -5.378906 C 17.570312 -6.589844 16.839844 -8.054688 14.800781 -7.734375 C 13.75 -7.578125 12.128906 -6.238281 10.757812 -4.710938 C 10.695312 -4.617188 10.570312 -4.582031 10.472656 -4.617188 C 10.378906 -4.648438 10.28125 -4.710938 10.28125 -4.839844 C 10.027344 -6.269531 9.074219 -7.480469 7.734375 -8.054688 C 6.652344 -8.339844 4.902344 -8.660156 1.242188 -5.03125 C 1.050781 -4.871094 0.796875 -4.933594 0.828125 -5.1875 C 0.828125 -5.316406 1.464844 -7.894531 1.464844 -7.894531 C 1.558594 -8.339844 1.273438 -8.785156 0.828125 -8.914062 C 0.382812 -9.007812 -0.0625 -8.722656 -0.191406 -8.277344 L -1.71875 -1.558594 C -1.816406 -1.179688 -1.625 -0.796875 -1.273438 -0.605469 C -0.890625 -0.445312 -0.476562 -0.542969 -0.253906 -0.859375 C 4.011719 -6.207031 6.113281 -6.714844 6.972656 -6.589844 C 7.832031 -6.429688 8.976562 -4.710938 8.847656 -1.941406 C 8.847656 -1.558594 9.074219 -1.210938 9.453125 -1.113281 C 9.835938 -0.988281 10.21875 -1.144531 10.410156 -1.464844 C 11.714844 -3.691406 14.261719 -5.953125 15.058594 -6.082031 C 15.820312 -6.207031 16.042969 -5.921875 16.679688 -4.648438 C 17.15625 -3.375 18.050781 -2.292969 19.195312 -1.558594 C 20.53125 -0.765625 22.058594 -0.316406 23.621094 -0.316406 C 29.699219 -0.316406 34.792969 -6.558594 35.046875 -6.90625 C 35.335938 -7.257812 35.269531 -7.800781 34.921875 -8.085938 Z M 34.921875 -8.085938 "/></g></g></g><g fill="#967f71" fill-opacity="1"><g transform="translate(614.071565, 334.623295)"><g><path d="M 26.613281 -7.703125 C 26.292969 -8.054688 25.753906 -8.085938 25.402344 -7.765625 C 25.308594 -7.671875 15.851562 0.828125 9.996094 -3.023438 C 7.671875 -4.550781 7.097656 -8.246094 7.097656 -8.277344 C 7.066406 -8.660156 6.78125 -8.945312 6.398438 -9.007812 C 6.046875 -9.039062 5.667969 -8.847656 5.507812 -8.53125 C 4.011719 -5.21875 1.367188 -1.019531 0.636719 -1.496094 C 0.574219 -1.496094 0.445312 -1.625 0.351562 -1.847656 C -0.03125 -2.898438 0.09375 -4.042969 0.636719 -5.03125 C 1.847656 -7.511719 4.074219 -9.296875 6.75 -9.964844 C 7.035156 -10.027344 7.257812 -10.25 7.351562 -10.535156 C 7.449219 -10.824219 7.351562 -11.140625 7.164062 -11.363281 C 6.941406 -11.554688 6.652344 -11.652344 6.367188 -11.585938 C 3.183594 -10.824219 0.542969 -8.660156 -0.890625 -5.730469 C -1.65625 -4.296875 -1.75 -2.578125 -1.144531 -1.082031 C -0.859375 -0.351562 -0.160156 0.160156 0.636719 0.160156 L 0.667969 0.160156 C 2.226562 0.128906 4.171875 -1.816406 5.507812 -3.914062 C 5.667969 -4.171875 5.953125 -4.296875 6.238281 -4.265625 C 6.527344 -4.265625 6.78125 -4.105469 6.90625 -3.851562 C 7.449219 -2.960938 8.179688 -2.195312 9.074219 -1.65625 C 16.011719 2.960938 26.101562 -6.144531 26.546875 -6.527344 C 26.707031 -6.683594 26.804688 -6.90625 26.804688 -7.097656 C 26.835938 -7.320312 26.738281 -7.542969 26.613281 -7.703125 Z M 26.613281 -7.703125 "/></g></g></g><g fill="#967f71" fill-opacity="1"><g transform="translate(639.781279, 334.623295)"><g><path d="M -0.636719 -10.824219 C -0.507812 -10.824219 -0.351562 -10.855469 -0.253906 -10.917969 C 0.507812 -11.300781 1.210938 -11.808594 1.78125 -12.414062 C 2.101562 -12.734375 2.070312 -13.273438 1.75 -13.59375 C 1.402344 -13.910156 0.890625 -13.910156 0.574219 -13.5625 C 0.09375 -13.082031 -0.445312 -12.667969 -1.019531 -12.382812 C -1.367188 -12.191406 -1.527344 -11.808594 -1.433594 -11.460938 C -1.335938 -11.078125 -1.019531 -10.824219 -0.636719 -10.824219 Z M 16.777344 -8.5625 C 16.617188 -8.722656 16.425781 -8.785156 16.203125 -8.785156 C 15.980469 -8.785156 15.757812 -8.691406 15.597656 -8.53125 C 15.4375 -8.339844 11.394531 -4.234375 5.824219 -8.371094 C 5.378906 -8.691406 4.773438 -8.660156 4.394531 -8.277344 C 3.660156 -7.609375 2.863281 -6.84375 2.070312 -5.953125 C 1.972656 -5.855469 1.847656 -5.824219 1.71875 -5.890625 C 1.589844 -5.953125 1.527344 -6.082031 1.558594 -6.238281 C 1.75 -7.226562 1.847656 -8.277344 1.816406 -9.328125 C 1.6875 -9.742188 1.242188 -10.027344 0.796875 -9.933594 C 0.351562 -9.804688 0.09375 -9.359375 0.191406 -8.914062 C 0.191406 -6.941406 -0.09375 -4.996094 -0.605469 -3.085938 C -0.636719 -2.863281 -0.765625 -2.640625 -0.890625 -2.449219 C -4.519531 2.195312 -7.765625 7.734375 -7.832031 11.269531 C -7.925781 12.222656 -7.578125 13.179688 -6.90625 13.910156 C -6.652344 14.199219 -6.269531 14.355469 -5.855469 14.355469 C -5.601562 14.355469 -5.316406 14.292969 -5.09375 14.132812 C -2.960938 12.925781 -0.636719 4.773438 0.699219 -1.625 C 0.730469 -1.75 0.796875 -1.878906 0.890625 -2.003906 C 2.164062 -3.628906 3.566406 -5.15625 5.0625 -6.621094 C 5.15625 -6.714844 5.285156 -6.714844 5.410156 -6.652344 C 8.882812 -4.074219 13.71875 -4.359375 16.839844 -7.351562 C 16.96875 -7.542969 17.0625 -7.734375 17.0625 -7.957031 C 17.0625 -8.179688 16.96875 -8.402344 16.777344 -8.5625 Z M -5.824219 12.636719 C -6.082031 12.253906 -6.207031 11.777344 -6.175781 11.300781 C -6.113281 9.007812 -4.234375 5.21875 -1.6875 1.464844 C -3.023438 6.652344 -4.773438 11.90625 -5.824219 12.636719 Z M -5.824219 12.636719 "/></g></g></g><g fill="#967f71" fill-opacity="1"><g transform="translate(655.404381, 334.623295)"><g><path d="M 27.597656 -8.945312 C 27.441406 -9.105469 27.21875 -9.167969 26.996094 -9.167969 C 26.773438 -9.167969 26.582031 -9.074219 26.421875 -8.914062 C 23.554688 -5.890625 17.125 -1.464844 12.414062 -1.464844 L 12.351562 -1.464844 C 11.046875 -1.402344 9.804688 -1.910156 8.914062 -2.832031 C 7.765625 -4.074219 8.5625 -7.449219 8.945312 -8.53125 C 9.105469 -8.945312 8.914062 -9.390625 8.53125 -9.550781 C 8.179688 -9.742188 7.703125 -9.644531 7.480469 -9.296875 C 5.03125 -5.730469 1.527344 -2.261719 0.382812 -2.929688 C 0 -3.183594 0.574219 -5.632812 2.132812 -8.402344 C 2.324219 -8.785156 2.195312 -9.261719 1.816406 -9.484375 C 1.433594 -9.710938 0.921875 -9.613281 0.699219 -9.230469 C -0.382812 -7.351562 -2.640625 -2.800781 -0.476562 -1.496094 C 1.242188 -0.476562 3.566406 -2.132812 5.507812 -4.136719 C 5.699219 -4.359375 5.984375 -4.425781 6.238281 -4.328125 C 6.492188 -4.265625 6.683594 -4.042969 6.75 -3.757812 C 6.84375 -2.992188 7.164062 -2.292969 7.671875 -1.6875 C 8.882812 -0.414062 10.570312 0.285156 12.320312 0.222656 L 12.414062 0.222656 C 17.667969 0.222656 24.480469 -4.425781 27.632812 -7.734375 C 27.789062 -7.925781 27.855469 -8.117188 27.855469 -8.339844 C 27.855469 -8.5625 27.757812 -8.785156 27.597656 -8.945312 Z M 27.597656 -8.945312 "/></g></g></g><g fill="#967f71" fill-opacity="1"><g transform="translate(681.718661, 334.623295)"><g><path d="M 27.441406 -8.371094 C 27.28125 -8.53125 27.089844 -8.625 26.867188 -8.625 C 26.644531 -8.625 26.421875 -8.53125 26.261719 -8.371094 C 20.753906 -2.992188 10.980469 -1.847656 8.882812 -3.085938 C 7.449219 -3.914062 7.609375 -4.902344 8.625 -6.875 C 9.105469 -7.832031 9.644531 -8.945312 8.722656 -9.613281 C 7.863281 -10.25 7.035156 -9.835938 6.304688 -9.453125 C 5.253906 -8.847656 4.074219 -8.53125 2.832031 -8.53125 C 2.546875 -8.53125 2.292969 -9.039062 2.355469 -9.230469 C 4.136719 -13.148438 3.34375 -13.878906 3.054688 -14.164062 C 2.578125 -14.644531 1.847656 -14.613281 0.953125 -14.070312 C -0.507812 -13.019531 -1.144531 -11.140625 -0.636719 -9.390625 C -0.507812 -8.914062 -0.285156 -8.46875 0.03125 -8.085938 C 0 -7.734375 0.160156 -7.417969 0.476562 -7.257812 C 0.667969 -7.164062 0.890625 -7.164062 1.113281 -7.226562 C 1.65625 -6.972656 2.261719 -6.84375 2.863281 -6.84375 C 4.171875 -6.8125 5.445312 -7.097656 6.589844 -7.734375 C 7.035156 -7.957031 7.195312 -7.765625 7.128906 -7.640625 C 6.367188 -6.144531 4.996094 -3.40625 8.054688 -1.625 C 9.136719 -1.113281 10.347656 -0.890625 11.554688 -0.988281 C 16.011719 -0.988281 23.015625 -2.898438 27.410156 -7.195312 C 27.566406 -7.320312 27.664062 -7.542969 27.664062 -7.765625 C 27.695312 -7.988281 27.597656 -8.214844 27.441406 -8.371094 Z M 0.921875 -10.121094 C 0.730469 -11.046875 1.050781 -12 1.78125 -12.605469 C 1.558594 -11.746094 1.273438 -10.917969 0.921875 -10.089844 Z M 0.921875 -10.121094 "/></g></g></g></svg>